<?xml version="1.0" standalone="yes"?>
<svg width="1080" height="1080">
<path style="fill:#ffffff; stroke:none;" d="M0 0L0 1080L70 1080L70 0L0 0z"/>
<path style="fill:#fefdfb; stroke:none;" d="M70 0L70 1080L149 1080L149 931C149 908.32 151.979 883.423 149.355 861C147.799 847.707 129.908 832.547 122.735 821.039C108.774 798.638 100.65 773.597 94.8881 748C85.682 707.105 91.5939 660.969 97.1813 620C98.595 609.634 103.884 599.49 104 589L81 607L86 572L85 572L83 574C83.0128 554.679 91.717 534.385 97.054 516C99.7638 506.666 103.288 502.244 102 492L106 494L108 484L102 484L102 0L70 0z"/>
<path style="fill:#fef9f3; stroke:none;" d="M102 0L102 484L108 484L106 494L102 492L96 522L97 522C108.095 491.922 133.764 461.227 159 442L159 440C143.385 435.384 126.618 442.319 111 443C113.84 424.749 144.153 421.421 153 408L114 411C140.401 385.275 175.713 373.041 206 353C202.767 343.611 191.832 335.086 184.079 329.229C178.791 325.234 172.432 323.042 171 316L202 316C198.283 302.758 181.75 298.899 174 289L190.972 286.258L192 268L192 220L192 0L102 0z"/>
<path style="fill:#fdeddd; stroke:none;" d="M192 0L192 221L192 269L190.397 286.258L177 288L177 289L228 292C227.161 272.461 228.389 250.379 232 231C238.562 234.917 239.455 248.24 247.14 250.248C250.417 251.105 252.272 246.959 250.228 244.627C248.598 242.768 245.227 243.13 243 243L244 158L244 0L192 0z"/>
<path style="fill:#fbe5ce; stroke:none;" d="M244 0L244 153L243 243C248.242 243.732 254.183 247.126 247 251C252.101 260.833 264.52 271.367 275 275C279.615 267.672 278 258.4 278 250L278 198L278 0L244 0z"/>
<path style="fill:#fadcc0; stroke:none;" d="M278 0L278 192L278 245C278 255.337 279.254 265.494 275 275L272 274L272 275C286.258 282.962 299.861 296.162 316 300C316 269.785 315.45 237.613 321.665 208C322.869 202.266 334.222 181.284 328 180C333.983 163.584 330 140.392 330 123L330 0L278 0z"/>
<path style="fill:#fad2ae; stroke:none;" d="M330 0L330 118C330 137.887 333.094 160.746 328 180C330.731 180.341 331.652 182.008 330.417 184.778C324.297 198.501 319 211.562 319 227L320 227C321.741 213.293 324.982 186.85 338 179C338 203.652 343.824 224.459 357.67 245C362.094 251.564 367.013 259.996 374 264C374 247.003 374.958 227.575 379.043 211C380.562 204.838 383.991 199.159 385.397 193C386.695 187.307 384.983 181.43 387 176L389 180C392.691 176.344 390.032 171.82 390.001 167C389.93 156.001 390 144.999 390 134L390 0L330 0z"/>
<path style="fill:#f7c797; stroke:none;" d="M390 0L390 131L390 165L389 180L387 176L386 192L387 192L390 189C390 228.425 413.935 261.406 441.829 287.561C450.663 295.843 460.391 307.999 473 310L476 303C471.884 297.566 474 286.626 474 280L474 223L474 0L390 0z"/>
<path style="fill:#f4c087; stroke:none;" d="M474 0L474 227L474 283C474 288.217 471.873 299.394 476 303L473 310L462 305C468.247 313.846 478.022 320.928 485.83 328.424C498.583 340.668 511.094 355.354 519.511 371C529.913 390.338 529.548 407.242 532 428C541.825 432.079 548.746 440.155 549 451C563.646 448.716 568.363 435.896 578 427L578 453L579 453L579 448C588.547 444.577 583.16 423.759 583 416L576 417L576 0L474 0z"/>
<path style="fill:#f7c391; stroke:none;" d="M576 0L576 417L583 416C583.074 424.945 588.341 442.436 579 448C580.36 474.553 580.302 498.865 566.431 523C560.161 533.911 551.518 542.155 544 552C551.124 552 559.066 551.814 565.985 553.719C570.794 555.043 575.587 559.255 580.907 558.498C586.15 557.751 593.658 545.756 595 541L582 536L612.215 497.961L624.218 472.039L634 455L615 474C616.901 461.083 623.875 449.462 629.756 438.004C632.943 431.794 637.44 427.347 637 420L636 420L636 425L634 425L638 418C633.434 405.472 636 389.225 636 376L636 290L636 0L576 0z"/>
<path style="fill:#f9cea4; stroke:none;" d="M636 0L636 298L636 381C636 392.083 633.136 407.892 638 418L634 425L636 425L636 420L637 420L637 424L638 424C650.82 404.538 666.177 387.126 683 371.039C687.97 366.287 701.112 359.196 701 352L699 355L691 353L691 352L694 352L694 0L636 0z"/>
<path style="fill:#fad9b8; stroke:none;" d="M694 0L694 266L694 330C694 335.932 696.471 348.453 691 352L691 353L699 355L700 352C706.077 354.435 710.711 348.631 716 346C709.868 355.74 697.374 368.589 701 381C705.626 379.028 715.169 369.232 719 375L769 338L769 337L765 336L764 339L760 338L762 302L762 234L762 0L694 0z"/>
<path style="fill:#fbe5ce; stroke:none;" d="M762 0L762 225L762 295L760 338L764 339L765 336C772.532 337.836 780.478 331.223 787.17 328.194C795.517 324.416 804.908 322.719 814 322L814 323C801.545 327.878 779.278 340.182 783 356L846 343L846 342L832 343L832 341L838 341C838.563 336.695 844.531 338 848 338L848 335L836 337L836 0L762 0z"/>
<path style="fill:#fcead6; stroke:none;" d="M836 0L836 337L848 335L848 338C844.421 338 838.539 336.713 838 341L832 341L832 343C858.977 342.372 883.673 341.589 909.961 349.666C923.869 353.939 936.203 363.026 950 367C946.994 361.361 940.402 360.454 935.089 357.63C920.293 349.765 904.543 345.128 888 342L888 341L896 340L896 339L883 338L884 301L884 229L884 0L836 0z"/>
<path style="fill:#fdf3ea; stroke:none;" d="M884 0L884 226L884 298L883 338L896 339L896 340L888 341L888 342L933 356C938.257 347.348 936 334.831 936 325L936 257L936 0L884 0z"/>
<path style="fill:#fffcf9; stroke:none;" d="M936 0L936 254L936 322C936 333.971 937.857 346.266 932 357C949.081 363.625 963.851 375.97 978.089 387.3C984.433 392.348 992.102 397.698 996 405L964 402L964 403L999 430L988 416L994 416L990 410L995 410L994 412L1008 412L1006 408L1009 407L1009 405L1004 404L1006 400C1003.08 399.53 995.129 402.77 998 397L996 351L996 268L996 0L936 0z"/>
<path style="fill:#fffefc; stroke:none;" d="M996 0L996 276L996 357C996 369.667 993.624 384.994 998 397C992.258 402.45 1004.07 400.02 1006 400L1004 404L1009 405L1009 407L1006 408L1008 412L994 412L995 410L990 410L994 416L988 416L998.549 427.669L994 446L994 447L994 448L996 462L996 493L996 614L996 1080L1014 1080L1014 0L996 0z"/>
<path style="fill:#ffffff; stroke:none;" d="M1014 0L1014 1080L1080 1080L1080 0L1014 0z"/>
<path style="fill:#ffae9a; stroke:none;" d="M335 179L339 207L340 207L338 179L335 179z"/>
<path style="fill:#d53b2f; stroke:none;" d="M335 181L337 198L338 198L335 181z"/>
<path style="fill:#e50d00; stroke:none;" d="M334 182C320.77 207.25 316.378 237.813 319.715 266C320.535 272.929 320.063 282.949 323.894 288.985C327.941 295.363 336.372 299.35 342 304.286C352.399 313.408 362.475 324.728 369 337L371 336L372 336L374 343C376.981 338.852 386.09 338.01 391 338L433 338C439.104 338 448.21 336.46 450 344C455.268 340.487 449.03 335.986 445.996 332.985C436.938 324.027 427.228 315.775 418 307C382.179 272.936 336 236.294 336 182L334 182z"/>
<path style="fill:#e40f00; stroke:none;" d="M388 189C379.249 208.94 370.797 239.096 382.138 259.961C388.223 271.156 401.749 280.796 411.09 289.275C418.577 296.072 430.939 312.282 442 310L441 315L442 315C444.634 309.217 446.8 306.137 453 304L453 309L454 309L455 301C432.626 281.129 408.215 253.994 396.605 226.004C391.701 214.18 392.677 200.147 388 189z"/>
<path style="fill:#ff7764; stroke:none;" d="M389 189L390 205L391 205L389 189z"/>
<path style="fill:#f37962; stroke:none;" d="M329.333 190.667L329.667 191.333L329.333 190.667z"/>
<path style="fill:#df6051; stroke:none;" d="M328 192L327 197L328 197L328 192z"/>
<path style="fill:#dd5640; stroke:none;" d="M386 192L385 195L386 192z"/>
<path style="fill:#f17a62; stroke:none;" d="M383.333 197.667L383.667 198.333L383.333 197.667z"/>
<path style="fill:#fba489; stroke:none;" d="M326 198L325 202L326 202L326 198z"/>
<path style="fill:#ff8c78; stroke:none;" d="M324 203L324 206L325 206L324 203z"/>
<path style="fill:#ffa186; stroke:none;" d="M380 206L379 213L380 213L380 206z"/>
<path style="fill:#ee745d; stroke:none;" d="M323.333 208.667L323.667 209.333L323.333 208.667z"/>
<path style="fill:#ce3c2f; stroke:none;" d="M340 208L340 212L341 212L340 208z"/>
<path style="fill:#f04b45; stroke:none;" d="M322 212L322 216L323 216L322 212z"/>
<path style="fill:#ec5e50; stroke:none;" d="M341.333 212.667L341.667 213.333L341.333 212.667z"/>
<path style="fill:#fa715f; stroke:none;" d="M378 213L378 218L379 218L378 213z"/>
<path style="fill:#ea5f4a; stroke:none;" d="M392.333 214.667L392.667 215.333L392.333 214.667z"/>
<path style="fill:#e1493e; stroke:none;" d="M321 217L321 223L322 223L321 217z"/>
<path style="fill:#f7735e; stroke:none;" d="M343 217L343 220L344 220L343 217z"/>
<path style="fill:#f86551; stroke:none;" d="M393 217L393 220L394 220L393 217z"/>
<path style="fill:#ce3321; stroke:none;" d="M377 220L377 241L378 241L377 220z"/>
<path style="fill:#fc7d6c; stroke:none;" d="M345.333 222.667L345.667 223.333L345.333 222.667z"/>
<path style="fill:#ff9c81; stroke:none;" d="M376 223L376 246L377 246L376 223z"/>
<path style="fill:#f57f65; stroke:none;" d="M346 224L346 227L347 227L346 224z"/>
<path style="fill:#f26e57; stroke:none;" d="M396.333 225.667L396.667 226.333L396.333 225.667z"/>
<path style="fill:#fa8f7d; stroke:none;" d="M319 227L319 232L320 232L319 227z"/>
<path style="fill:#f66854; stroke:none;" d="M397.333 227.667L397.667 228.333L397.333 227.667z"/>
<path style="fill:#ffbbad; stroke:none;" d="M232 231L231 238L232 238L232 231z"/>
<path style="fill:#e61100; stroke:none;" d="M233 231C227.964 255.41 233.639 273.343 241 296L176 291L176 292C189.062 300.93 200.455 311.334 210 324L211 324L208 314L291 314C299.216 314 315.338 310.953 322 316L323 316L330 313C327.028 302.963 305.684 295.543 297 290.397C280.185 280.432 263.317 269.694 250.174 255C243.646 247.702 239.98 237.449 233 231z"/>
<path style="fill:#fc867c; stroke:none;" d="M235.333 232.667L235.667 233.333L235.333 232.667z"/>
<path style="fill:#ff8975; stroke:none;" d="M318 233L318 247L319 247L318 233z"/>
<path style="fill:#f88372; stroke:none;" d="M230 240L230 245L231 245L230 240z"/>
<path style="fill:#560100; stroke:none;" d="M377 241C376.224 248.795 372.717 258.171 375.603 266C378.305 273.329 387.597 279.622 393 285.001C408.056 299.989 424.648 313.361 440 328.039C449.522 337.144 460.262 353.481 472 359C470.419 343.647 452.465 328.133 442.166 317.834C423.845 299.513 397.641 282.497 383.272 260.911C379.085 254.62 379.717 247.473 377 241z"/>
<path style="fill:#db4439; stroke:none;" d="M241 244L243 247L241 244z"/>
<path style="fill:#e6433c; stroke:none;" d="M230 245L230 260L231 260L230 245z"/>
<path style="fill:#9c0500; stroke:none;" d="M318 248L319 272L320 272L318 248z"/>
<path style="fill:#e4a593; stroke:none;" d="M374 251L374 266L375 266L374 251z"/>
<path style="fill:#df4837; stroke:none;" d="M411 252L413 255L411 252z"/>
<path style="fill:#580003; stroke:none;" d="M317 257C317 269.757 312.118 289.72 317.603 301.621C319.747 306.272 328.805 309.734 333 312.414C341.875 318.082 350.013 324.256 357.816 331.335C361.664 334.826 364.394 339.534 369 342C365.634 325.91 353.222 312.889 341 302.59C335.712 298.134 328.695 294.615 324.573 288.985C318.287 280.402 320.964 266.443 317 257z"/>
<path style="fill:#800000; stroke:none;" d="M230 261L233 278L234 278L230 261z"/>
<path style="fill:#c7897e; stroke:none;" d="M316 262L316 273L317 273L316 262z"/>
<path style="fill:#570000; stroke:none;" d="M229 267L229 294L241 296L229 267z"/>
<path style="fill:#ff9784; stroke:none;" d="M262.667 267.333L263.333 267.667L262.667 267.333z"/>
<path style="fill:#b87b7a; stroke:none;" d="M228 268L228 274L229 274L228 268z"/>
<path style="fill:#ff9e89; stroke:none;" d="M276 277L279 279L276 277z"/>
<path style="fill:#ff8f79; stroke:none;" d="M282 281L285 283L282 281z"/>
<path style="fill:#f8816d; stroke:none;" d="M285 283L288 285L285 283z"/>
<path style="fill:#fc9479; stroke:none;" d="M288.667 285.333L289.333 285.667L288.667 285.333z"/>
<path style="fill:#8d6559; stroke:none;" d="M227 286L228 287L227 286z"/>
<path style="fill:#ffb2a1; stroke:none;" d="M174 289L174 290L202 290L174 289z"/>
<path style="fill:#daaa96; stroke:none;" d="M316 289L314 301L317 302L316 289z"/>
<path style="fill:#dc3628; stroke:none;" d="M174 290L174 291L191 291L174 290z"/>
<path style="fill:#eb5f4e; stroke:none;" d="M191 290L191 291L202 291L191 290z"/>
<path style="fill:#ffb29d; stroke:none;" d="M202 290L202 291L210 291L202 290z"/>
<path style="fill:#ed6451; stroke:none;" d="M228 290L224 293L224 294L229 294L228 290z"/>
<path style="fill:#e77261; stroke:none;" d="M211 291L211 292L216 292L211 291z"/>
<path style="fill:#df665d; stroke:none;" d="M176.667 292.333L177.333 292.667L176.667 292.333z"/>
<path style="fill:#de4132; stroke:none;" d="M214 292L214 293L221 293L214 292z"/>
<path style="fill:#ffa597; stroke:none;" d="M221 292L221 293L228 293L221 292z"/>
<path style="fill:#fb9376; stroke:none;" d="M305.667 295.333L306.333 295.667L305.667 295.333z"/>
<path style="fill:#ea2200; stroke:none;" d="M450 295L455 301L454 309L453 309L453 304C446.432 305.434 444.033 308.857 442 315L441 315L442 310L432 308C447.819 328.704 472.585 344.991 479 372L454 340L453 340L450 344L451 341C436.149 332.852 408.857 338 392 338C387.403 338 375.085 337.962 374 343L372 336L369 337L366 333L371 347L370 347C363.678 332.352 345.221 315.85 330 311L323 316L322 316C317.574 310.935 299.586 314 293 314L208 314C207.658 323.807 218.35 331.878 215.196 342C212.986 349.093 205.404 353.158 199.83 357.431C188.974 365.752 174.981 370.92 163.003 377.441C155.196 381.691 147.367 388.224 139 391L141 393L140 398L144 398L144 394L155 396C160.824 393.285 174.131 396 181 396L246 396C253.453 396 268.648 392.906 273 400C291.806 391.21 309.099 381.956 330 378.443C345.746 375.796 361.25 377.99 377 378L377 380L336 387L336 388L342 388L342 389L340 391L407 391L434 393L436 389L437 389L439 393L440 393L434 374C448.571 378.889 460.877 390.164 469 403L470 403L468 394L474 397L474 393L475 393L475 399L476 399L478 391L480 391C481.468 399.795 503.777 396 511 396L514 391C515.474 397.876 521.498 391.49 523 388L524 388L526 392L527 392C526.454 380.089 518.901 368.553 512.341 359C496.224 335.529 473.386 311.42 450 295z"/>
<path style="fill:#f69270; stroke:none;" d="M312.667 299.333L313.333 299.667L312.667 299.333z"/>
<path style="fill:#dfaeaa; stroke:none;" d="M202 314C195.63 318.826 180.846 316 173 316L173 317L204 317L202 314z"/>
<path style="fill:#540000; stroke:none;" d="M171 316C172.185 323.377 178.574 325.403 184 329.669C192.231 336.141 199.596 343.731 206 352L208 352C214.617 342.283 219.75 323.572 203.985 317.603C194.421 313.982 181.213 317.896 171 316z"/>
<path style="fill:#9c6b66; stroke:none;" d="M171 319L172 320L171 319z"/>
<path style="fill:#f58e7b; stroke:none;" d="M809 322L809 323L814 323L809 322z"/>
<path style="fill:#ee3300; stroke:none;" d="M712 350C699.81 351.621 687.331 365.71 679 374.001C657.922 394.977 637.775 418.694 625.463 446C621.727 454.286 616.272 463.799 616 473C633.03 460.466 646.811 443.164 664.286 430.544C690.449 411.648 719.788 401.359 749.83 391.169C762.797 386.771 775.486 386.116 789 384.83C795.421 384.219 802.711 382.4 808 387C768.211 387.821 734.669 404.159 700.911 422.984C688.025 430.169 670.906 438.908 662 451C668.833 447.955 671.162 444.482 679 446L679 445C676.202 440.126 684.152 437.14 688 436L688 440L729 442L730 437C749.455 436.985 766.779 418.605 787 416.184C801.465 414.453 816.971 414.206 831 418.685C838.43 421.057 851.591 431.12 858.985 430.162C864.289 429.475 871.046 422.865 876 420.439C886.39 415.35 897.91 411.911 909 408.781C928.75 403.207 951.426 399.512 972 400.015C979.492 400.198 986.513 402.937 994 403C988.219 390.611 970.353 380.234 959 373.194C923.151 350.963 885.155 340.142 843 344.17C829.141 345.494 815.312 349.944 802 353.914C796.699 355.495 790.641 360.353 785.228 356.258C780.489 352.672 782.761 346.913 785.709 343.015C791.735 335.045 802.715 327.56 812 324C804.678 320.929 793.894 325.719 787 328.576C765.372 337.541 745.972 353.437 728 368.25C723.586 371.888 704.957 389.23 700.608 377.941C697.232 369.18 709.66 357.894 712 350z"/>
<path style="fill:#936861; stroke:none;" d="M176 324L177 325L176 324z"/>
<path style="fill:#f28463; stroke:none;" d="M794 325L794 326L800 325L794 325z"/>
<path style="fill:#966761; stroke:none;" d="M178 325L179 326L178 325z"/>
<path style="fill:#ffb198; stroke:none;" d="M803 328L803 329L809 325L803 328z"/>
<path style="fill:#ed8568; stroke:none;" d="M788.667 327.333L789.333 327.667L788.667 327.333z"/>
<path style="fill:#946460; stroke:none;" d="M182 328L183 329L182 328z"/>
<path style="fill:#ff8c71; stroke:none;" d="M785 328L785 329L788 329L785 328z"/>
<path style="fill:#976860; stroke:none;" d="M187 332L188 333L187 332z"/>
<path style="fill:#a01302; stroke:none;" d="M215 333L215 342L216 342L215 333z"/>
<path style="fill:#df583a; stroke:none;" d="M772 335L772 336L776 335L772 335z"/>
<path style="fill:#95645d; stroke:none;" d="M190 335L191 336L190 335z"/>
<path style="fill:#ee694a; stroke:none;" d="M765 339L765 340L769 339L765 339z"/>
<path style="fill:#ffb59a; stroke:none;" d="M786 343L791 338L786 343z"/>
<path style="fill:#a20000; stroke:none;" d="M369 340L370 347L371 347L369 340z"/>
<path style="fill:#ba1704; stroke:none;" d="M214 342L208 352C211.387 349.555 215.176 346.495 214 342z"/>
<path style="fill:#ffb894; stroke:none;" d="M846 342L846 343L853 343L846 342z"/>
<path style="fill:#f5715a; stroke:none;" d="M853 342L853 343L880 344L853 342z"/>
<path style="fill:#eb6741; stroke:none;" d="M836 344L836 345L853 344L836 344z"/>
<path style="fill:#ffa697; stroke:none;" d="M880 343L880 344L885 344L880 343z"/>
<path style="fill:#dd462b; stroke:none;" d="M754 347L754 348L760 344L754 347z"/>
<path style="fill:#ffa897; stroke:none;" d="M886 344L886 345L890 345L886 344z"/>
<path style="fill:#ffb7a4; stroke:none;" d="M892 345L892 346L896 346L892 345z"/>
<path style="fill:#da4a30; stroke:none;" d="M710 349L713 352L716 346L710 349z"/>
<path style="fill:#fe9a80; stroke:none;" d="M823 347L823 348L830 347L823 347z"/>
<path style="fill:#fb7d66; stroke:none;" d="M896 346L896 347L899 347L896 346z"/>
<path style="fill:#ef7359; stroke:none;" d="M899 347L899 348L902 348L899 347z"/>
<path style="fill:#deaf9d; stroke:none;" d="M810 348L810 349L814 349L810 348z"/>
<path style="fill:#590000; stroke:none;" d="M784 356L784 357L816 350C807.512 346.439 791.688 351.803 784 356z"/>
<path style="fill:#9d0e00; stroke:none;" d="M816 349L811 352L816 349z"/>
<path style="fill:#ef9384; stroke:none;" d="M908.667 349.333L909.333 349.667L908.667 349.333z"/>
<path style="fill:#e04529; stroke:none;" d="M738 361L752 350L738 361z"/>
<path style="fill:#ffa89b; stroke:none;" d="M910 350L910 351L914 351L910 350z"/>
<path style="fill:#95594f; stroke:none;" d="M797.667 351.333L798.333 351.667L797.667 351.333z"/>
<path style="fill:#ff7d68; stroke:none;" d="M920 353L923 355L920 353z"/>
<path style="fill:#e97e5c; stroke:none;" d="M197 358L197 359L202 357L197 358z"/>
<path style="fill:#840000; stroke:none;" d="M472 356L470 360L479 372L472 356z"/>
<path style="fill:#e76848; stroke:none;" d="M926.667 356.333L927.333 356.667L926.667 356.333z"/>
<path style="fill:#ff926b; stroke:none;" d="M708 357L706 362L707 362L708 357z"/>
<path style="fill:#8f1200; stroke:none;" d="M786 357L786 358L795 358L786 357z"/>
<path style="fill:#e97753; stroke:none;" d="M928.667 357.333L929.333 357.667L928.667 357.333z"/>
<path style="fill:#ed755c; stroke:none;" d="M190 362L190 363L197 360L190 362z"/>
<path style="fill:#ffb29b; stroke:none;" d="M936.667 360.333L937.333 360.667L936.667 360.333z"/>
<path style="fill:#e66f51; stroke:none;" d="M188.667 363.333L189.333 363.667L188.667 363.333z"/>
<path style="fill:#f77962; stroke:none;" d="M186.667 364.333L187.333 364.667L186.667 364.333z"/>
<path style="fill:#f5876e; stroke:none;" d="M184.667 365.333L185.333 365.667L184.667 365.333z"/>
<path style="fill:#e06043; stroke:none;" d="M181 368L184 366L181 368z"/>
<path style="fill:#fd8f76; stroke:none;" d="M949 367L952 369L949 367z"/>
<path style="fill:#ec6d4d; stroke:none;" d="M179.667 368.333L180.333 368.667L179.667 368.333z"/>
<path style="fill:#ffc1a9; stroke:none;" d="M953 369L956 371L953 369z"/>
<path style="fill:#f97447; stroke:none;" d="M519.333 370.667L519.667 371.333L519.333 370.667z"/>
<path style="fill:#ef7546; stroke:none;" d="M701 370L700 373L701 370z"/>
<path style="fill:#ff8b74; stroke:none;" d="M171 372L171 373L175 372L171 372z"/>
<path style="fill:#ffab99; stroke:none;" d="M956 371L959 373L956 371z"/>
<path style="fill:#520000; stroke:none;" d="M702 382C709.037 381.937 717.737 379.992 719 372C712.731 372.435 705.41 376.714 702 382z"/>
<path style="fill:#e77050; stroke:none;" d="M166 375L166 376L170 375L166 375z"/>
<path style="fill:#560000; stroke:none;" d="M434 374C437.252 395.71 450.968 414.997 474 415C473.057 397.557 450.229 377.477 434 374z"/>
<path style="fill:#550000; stroke:none;" d="M256 417L291 421.585L327 412L327 411L298 406C307.844 393.908 325.628 390.334 340 386.762C352.615 383.626 363.724 380 377 380L377 378C343.291 377.907 311.355 377.19 281 395.011C272.316 400.109 259.411 406.996 256 417z"/>
<path style="fill:#f7957a; stroke:none;" d="M158 379L158 380L162 379L158 379z"/>
<path style="fill:#ffc7af; stroke:none;" d="M968 379L971 381L968 379z"/>
<path style="fill:#f57c5f; stroke:none;" d="M153 382L153 383L157 382L153 382z"/>
<path style="fill:#ffc5b2; stroke:none;" d="M972 382L975 384L972 382z"/>
<path style="fill:#ffc0a9; stroke:none;" d="M150 385L153 384L150 385z"/>
<path style="fill:#b31200; stroke:none;" d="M791 384L791 385L802 385L802 386L800 386L800 387L808 387C804.485 382.383 796.264 384 791 384z"/>
<path style="fill:#550000; stroke:none;" d="M616 493C635.052 479.542 650.251 459.325 669 444.887C695.461 424.51 724.173 406.953 756 396.355C771.245 391.279 786.563 389.685 802 386C786.858 379.646 762.774 387.303 747.961 391.461C734.354 395.281 723.736 401.024 711.004 406.736C707.138 408.47 702.882 408.057 698.996 409.802C665.721 424.75 621.476 453.486 616 493z"/>
<path style="fill:#f97f6a; stroke:none;" d="M146.667 386.333L147.333 386.667L146.667 386.333z"/>
<path style="fill:#ea6441; stroke:none;" d="M140 390L140 391L146 387L140 390z"/>
<path style="fill:#c92909; stroke:none;" d="M768 392L768 393L802 388C791.72 383.686 778.35 391.091 768 392z"/>
<path style="fill:#f03700; stroke:none;" d="M298 406C309.376 407.469 330.6 408.803 339 417C321.435 419.633 299.799 440.723 292 456L311 438.042L320 437L319 440L358 440L357 437L363 438L363 439L360 440L360 441L365 441L365 442L362 446C388.146 439.836 412.974 435 440 435C448.754 435 466.061 436.025 470.682 445.04C473.06 449.679 471.385 455.118 471 460L472 460L472 440L476 442L477 442L478 442L495 440L534 438L534 434L544 437L531.042 425.586L529 392L524 388L523 388C520.588 391.416 517.229 395.928 514 391L511 396C503.351 396 482.663 399.774 480 391L478 391L476 399L475 399L475 393L474 393L474 397L468 394L475 416C455.747 415.945 447.795 402.567 437 389L436 389L434 393C425.953 388.813 413.894 391 405 391C383.428 391 361.528 392.129 340 391L342 389C330.636 384.231 303.609 395.594 298 406z"/>
<path style="fill:#f26631; stroke:none;" d="M527 388L527 392L528 392L527 388z"/>
<path style="fill:#ffccc0; stroke:none;" d="M982 390L987 394L982 390z"/>
<path style="fill:#e97753; stroke:none;" d="M135 393L135 394L139 393L135 393z"/>
<path style="fill:#f14200; stroke:none;" d="M116 410C122.76 409.327 129.339 406.915 136.039 406.129C157.594 403.598 190.902 411.322 194.787 437C197.18 452.819 188.131 468.212 188 484C201.342 475.926 212.783 464.112 226 455.505C247.69 441.381 270.571 431.927 295 424C285.758 418.355 266.729 417.03 256 417C258.202 412.766 274.036 401.901 271.673 397.603C269.394 393.458 250.388 396 246 396L178 396C173.235 396 157.756 393.222 155 396L144 394L144 398L140 398L141 393C133.049 394.093 119.781 402.946 116 410z"/>
<path style="fill:#dc4f21; stroke:none;" d="M120 406L130 398L120 406z"/>
<path style="fill:#eb5b26; stroke:none;" d="M530 400L530 419L531 419L530 400z"/>
<path style="fill:#ec6234; stroke:none;" d="M716 401L716 402L721 400L716 401z"/>
<path style="fill:#ed7a5f; stroke:none;" d="M961 400L961 401L984 402L961 400z"/>
<path style="fill:#540000; stroke:none;" d="M644 579C632.184 572.973 621.266 561.217 611 552.75C607.412 549.791 602.001 543.678 597.015 543.582C590.389 543.453 583.977 555.785 582 561C598.106 568.619 612.374 583.727 626 595.08C631.764 599.882 637.84 606.567 645 609C667.408 570.214 685.843 531.34 713.979 495.914C731.009 474.472 752.301 455.438 780.015 449.629C796.528 446.167 814.559 444.917 830.911 449.973C837.979 452.159 853.415 463.77 860 461.943C870.077 459.146 879.853 450.461 889.999 446.66C923.536 434.094 962.863 427.344 998 436C999.76 428.077 986.586 419.158 981 414.619C975.681 410.297 968.559 403.684 962 401.564C955.608 399.498 948.367 401.881 942 402.711C926.781 404.693 911.653 407.017 897 411.948C889.158 414.586 880.176 417.198 873.089 421.511C868.734 424.161 863.531 429.845 858 429.626C849.265 429.279 838.821 420.417 830 418.09C812.758 413.543 793.108 415.627 776 419.499C723.638 431.351 689.36 488.705 665.834 533C658.835 546.177 644.788 563.846 644 579z"/>
<path style="fill:#ffcab7; stroke:none;" d="M964 401L964 402L976 402L964 401z"/>
<path style="fill:#ffb79b; stroke:none;" d="M704 408L718 403L704 408z"/>
<path style="fill:#e5958a; stroke:none;" d="M990 403L990 404L996 405L996 402L990 403z"/>
<path style="fill:#f7784f; stroke:none;" d="M712.667 403.333L713.333 403.667L712.667 403.333z"/>
<path style="fill:#8e6961; stroke:none;" d="M965 403L966 404L965 403z"/>
<path style="fill:#926967; stroke:none;" d="M967 404L968 405L967 404z"/>
<path style="fill:#d34618; stroke:none;" d="M132 406L132 407L162 408C153.859 403.672 141.019 406 132 406z"/>
<path style="fill:#ff925d; stroke:none;" d="M531 406L531 421L532 421L531 406z"/>
<path style="fill:#936162; stroke:none;" d="M969 406L970 407L969 406z"/>
<path style="fill:#f3724b; stroke:none;" d="M132 407L132 408L139 408L132 407z"/>
<path style="fill:#ffaf8e; stroke:none;" d="M139 407L139 408L156 408L139 407z"/>
<path style="fill:#e3683e; stroke:none;" d="M120 409L120 410L128 409L120 409z"/>
<path style="fill:#ffc4ae; stroke:none;" d="M128 408L128 409L137 409L128 408z"/>
<path style="fill:#540000; stroke:none;" d="M112 443L157 438.941L168.772 436.255L174.302 443.215L191 462C193.256 458.233 192.783 454.242 193.285 450C195.953 427.469 182.984 407.354 158 408.094C148.998 408.361 138.471 417.341 131.386 422.4C125.094 426.892 110.327 434.106 112 443z"/>
<path style="fill:#a21a04; stroke:none;" d="M310 408L310 409L314 409L310 408z"/>
<path style="fill:#c8785d; stroke:none;" d="M114 411L117 411L116 409L114 411z"/>
<path style="fill:#9b6b69; stroke:none;" d="M973 409L974 410L973 409z"/>
<path style="fill:#966b65; stroke:none;" d="M146 412L147 413L146 412z"/>
<path style="fill:#fce1c6; stroke:none;" d="M293 421L295 424C282.9 428.66 267.469 430.789 261 444C276.32 444.002 297.442 456.351 306 438L295 437C296.383 424.719 322.43 417.199 333 415C322.736 406.598 303.698 417.57 293 421z"/>
<path style="fill:#986866; stroke:none;" d="M978 412L979 413L978 412z"/>
<path style="fill:#a21a04; stroke:none;" d="M474 413L466 415L466 416C468.616 416 475.541 417.089 474 413z"/>
<path style="fill:#c11b00; stroke:none;" d="M334 414L334 415L339 417L334 414z"/>
<path style="fill:#550000; stroke:none;" d="M295 437C309.181 438.119 312.657 431.761 324 424.231C328.241 421.416 334.35 419.383 337 415C325.624 415.039 295.74 423.627 295 437z"/>
<path style="fill:#990f00; stroke:none;" d="M797 415L797 416L816 416L797 415z"/>
<path style="fill:#8b0c00; stroke:none;" d="M771 420L771 421L792 417C786.081 414.522 776.689 417.595 771 420z"/>
<path style="fill:#986866; stroke:none;" d="M137 418L138 419L137 418z"/>
<path style="fill:#b72300; stroke:none;" d="M267 418L267 419L278 420L267 418z"/>
<path style="fill:#ab1e00; stroke:none;" d="M705 419L705 420L709 419L705 419z"/>
<path style="fill:#8d6766; stroke:none;" d="M986 419L987 420L986 419z"/>
<path style="fill:#971c00; stroke:none;" d="M530 420L532 427L530 420z"/>
<path style="fill:#fea182; stroke:none;" d="M292 421L295 423L295 422L292 421z"/>
<path style="fill:#ff8c56; stroke:none;" d="M639 421L638 424L639 421z"/>
<path style="fill:#ac1c01; stroke:none;" d="M698 423L698 424L704 422L698 423z"/>
<path style="fill:#946261; stroke:none;" d="M130 423L131 424L130 423z"/>
<path style="fill:#926963; stroke:none;" d="M990 423L991 424L990 423z"/>
<path style="fill:#940e00; stroke:none;" d="M864 426L864 427L870 425L864 426z"/>
<path style="fill:#ffa573; stroke:none;" d="M287 426L287 427L292 426L287 426z"/>
<path style="fill:#f16834; stroke:none;" d="M637 425L636 428L637 425z"/>
<path style="fill:#926869; stroke:none;" d="M992 425L993 426L992 425z"/>
<path style="fill:#f54e00; stroke:none;" d="M576 427C570.313 437.63 560.243 449.123 548 452C547.999 439.936 545.1 437.622 534 434L534 438L493 440L478 442L477 442L476 442L472 440C472.508 451.823 473.22 460.877 464 470L463 477C487.319 477 523.165 478.527 531.211 507C533.257 514.237 530.327 520.839 530 528C568.478 513.415 578 462.389 578 427L576 427z"/>
<path style="fill:#9c1900; stroke:none;" d="M663 432L669 429L663 432z"/>
<path style="fill:#946869; stroke:none;" d="M120 430L121 431L120 430z"/>
<path style="fill:#540000; stroke:none;" d="M264 461L262 467C272.439 465.344 290.257 459.073 296 450L260 444L276 431C269.317 429.43 259.953 436.557 254 439.272C234.117 448.341 206.172 462.778 192.703 480.424C187.486 487.259 187.817 498.835 186.041 506.961C185.533 509.284 182.458 515.167 186.319 516.249C192.668 518.03 202.147 502.88 206.039 499.089C220.514 484.994 244.082 466.021 264 461z"/>
<path style="fill:#906869; stroke:none;" d="M998 430L999 431L998 430z"/>
<path style="fill:#b28683; stroke:none;" d="M951 432L951 433L958 433L951 432z"/>
<path style="fill:#e0c1be; stroke:none;" d="M958 432L958 433L978 433L958 432z"/>
<path style="fill:#a97874; stroke:none;" d="M978 432L978 433L981 433L978 432z"/>
<path style="fill:#fefbf6; stroke:none;" d="M879 453L879 454L881 456L883 455L884 458L877 456L885.566 467.018L886 511L886 607L892 607L892 612L897 616L892 616C894.38 622.881 899.825 627.105 907 628L907 629L905 630C925.31 642.174 947.65 662.57 957.212 685C968.093 710.524 968.666 738.638 967.985 766C967.751 775.401 964.05 786.126 960.343 794.714C958.037 800.058 954.132 804.288 957 810L947 822L946 832L948 851L948 898L948 1080L996 1080L996 605L996 488L996 459L994 448L994 447L994 446L997 436C965.425 430.654 932.801 432.905 902.015 442.305C893.986 444.756 887.418 450.977 879 453z"/>
<path style="fill:#916161; stroke:none;" d="M982 433L983 434L982 433z"/>
<path style="fill:#c02c06; stroke:none;" d="M194 434L193 454L194 454L194 434z"/>
<path style="fill:#f75001; stroke:none;" d="M109 502L146 500L160 498L161 498L161 504C163.738 497.535 163.295 488.964 164.285 482C165.715 471.944 168.46 462.108 169.87 452C170.417 448.076 173.939 438.725 169.566 436.072C164.186 432.808 154.283 444.811 151 448.015C138.786 459.933 127.5 471.557 118.402 485.996C115.03 491.348 110.009 495.481 109 502z"/>
<path style="fill:#900d00; stroke:none;" d="M419 435L419 436L452 436L419 435z"/>
<path style="fill:#da9e9e; stroke:none;" d="M930 435L930 436L934 436L930 435z"/>
<path style="fill:#e0b4b3; stroke:none;" d="M993 435L993 436L997 436L993 435z"/>
<path style="fill:#89696c; stroke:none;" d="M998 435L999 436L998 435z"/>
<path style="fill:#976461; stroke:none;" d="M113 436L114 437L113 436z"/>
<path style="fill:#550000; stroke:none;" d="M367 445L367 446L405 452L398 470L424 467L427 457C427.766 459.565 427.529 464.183 429.742 465.972C434.847 470.099 450.219 466.73 456.91 468.22C459.605 468.82 462.727 470.779 465.367 468.968C469.845 465.894 471.79 457.04 471.957 452C472.359 439.852 457.332 436.051 447 436.001C419.985 435.869 392.703 435.576 367 445z"/>
<path style="fill:#f65100; stroke:none;" d="M679 445L679 446C670.114 443.259 662.85 449.269 656 454.887C645.982 463.104 636.887 472.114 627.6 481.12C623.786 484.818 620.192 490.444 615 492L592.079 522.999L582 536C606.583 543.199 620.278 568.394 643 578C658.391 541.228 680.736 505.723 704.742 474C714.226 461.468 729.368 450.327 737 437L730 437L729 442L688 440L688 436C684.553 436.624 674.044 440.594 679 445z"/>
<path style="fill:#8d6563; stroke:none;" d="M929 436L930 437L929 436z"/>
<path style="fill:#f44a00; stroke:none;" d="M283 475C302.137 466.963 317.982 462.077 339 467.704C346.979 469.841 354.009 474.824 362 477.022C370.07 479.241 380.259 473.565 387 480L389 474L390 474L393 478L392 496L393 496C393 479.212 400.954 467.599 405 452C390.739 447.479 375.783 448 361 448L365 442L365 441L360 441L360 440L363 439L363 438L357 437L358 440L319 440L320 437C302.623 437.913 286.484 458.176 283 475z"/>
<path style="fill:#ffb187; stroke:none;" d="M458 437L467 441L467 440L458 437z"/>
<path style="fill:#9a6462; stroke:none;" d="M922 437L923 438L922 437z"/>
<path style="fill:#957371; stroke:none;" d="M111 438L112 439L111 438z"/>
<path style="fill:#c79e98; stroke:none;" d="M144 438L144 439L153 439L144 438z"/>
<path style="fill:#d3a29e; stroke:none;" d="M130 439L130 440L135 440L130 439z"/>
<path style="fill:#fab0a3; stroke:none;" d="M158 439L160 441L160 439L158 439z"/>
<path style="fill:#d09d9a; stroke:none;" d="M911 439L911 440L914 440L911 439z"/>
<path style="fill:#966d6b; stroke:none;" d="M129 440L130 441L129 440z"/>
<path style="fill:#9c6666; stroke:none;" d="M120 441L121 442L120 441z"/>
<path style="fill:#9d6864; stroke:none;" d="M905 441L906 442L905 441z"/>
<path style="fill:#8d7170; stroke:none;" d="M111 442L112 443L111 442z"/>
<path style="fill:#d3b0aa; stroke:none;" d="M114 442L114 443L117 443L114 442z"/>
<path style="fill:#f68356; stroke:none;" d="M171 442L171 447L172 447L171 442z"/>
<path style="fill:#fff0e6; stroke:none;" d="M172 442L170.522 460L174.829 474L166 542L189 517L184 517L190 484L187 485C187.586 478.274 190.782 471.766 190.866 465C190.996 454.467 180.601 446.031 172 442z"/>
<path style="fill:#965752; stroke:none;" d="M260.333 442.667L260.667 443.333L260.333 442.667z"/>
<path style="fill:#d9a4a0; stroke:none;" d="M897.667 443.333L898.333 443.667L897.667 443.333z"/>
<path style="fill:#8f0800; stroke:none;" d="M362 446L362 447L373 447L373 446L367 446L367 445L370 445L362 446z"/>
<path style="fill:#ed7538; stroke:none;" d="M548 444L548 452L552 452L552 451L549 451L548 444z"/>
<path style="fill:#ad7d6f; stroke:none;" d="M272 445L272 446L275 446L272 445z"/>
<path style="fill:#fbe5ce; stroke:none;" d="M757 457C757.728 461.362 759.824 461.863 764 462C758.665 471.997 762 489.775 762 501L762 593C762 603.161 757.831 625.857 764 634L762 636L762 637L764 637L764 639C761.059 640.62 760.501 641.686 761 645C753.626 647.918 752.006 651.313 752 659L754 654L757 650L761 651L763 643L767 644L768 634L772 634L771 608C801.627 621.292 807.643 660.261 809.04 689C809.371 695.812 811.266 702.03 810.961 709C810.603 717.161 807.237 724.967 807 733C834.777 733 893.609 711.02 868.972 675.131C861.843 664.746 852.038 657.523 840.576 652.556C838.261 651.553 829.839 650.543 831.346 646.414C832.572 643.054 839.309 644.001 842 644C852.107 643.996 862.153 644.656 872 647C867.511 636.927 856.767 628.59 847 623.83C842.18 621.481 836.789 620.995 833 617C852.076 617 871.905 618.358 890 624.897C900.181 628.576 908.584 635.657 919 639L907 629L907 628C899.924 626.483 895.293 622.362 892 616L897 616L892 612L892 607L886 607L886 516L886 481L885.258 465.13L877 456L884 458L883 455L881 456L879 454L879 453L897 446C888.778 443.057 873.908 453.072 867 457.286C864.533 458.792 861.17 462.418 858.08 462.188C849.102 461.522 838.658 451.23 828.985 449.265C812.994 446.016 793.99 445.879 778.089 449.843C770.85 451.648 764.29 455.328 757 457z"/>
<path style="fill:#c82f0f; stroke:none;" d="M361 446L377 448L377 447L361 446z"/>
<path style="fill:#bc8b7d; stroke:none;" d="M799 446L799 447L812 447L799 446z"/>
<path style="fill:#e66f45; stroke:none;" d="M170 447L170 452L171 452L170 447z"/>
<path style="fill:#966560; stroke:none;" d="M180 447L181 448L180 447z"/>
<path style="fill:#92615c; stroke:none;" d="M888 447L889 448L888 447z"/>
<path style="fill:#fea176; stroke:none;" d="M293 449L293 450L297 450L293 449z"/>
<path style="fill:#f8985c; stroke:none;" d="M622 451L621 456L622 456L622 451z"/>
<path style="fill:#f5b695; stroke:none;" d="M170 452L170 457L171 457L170 452z"/>
<path style="fill:#540000; stroke:none;" d="M577 453C575.705 483.169 553.914 513.625 529 529C530.323 523.211 531.223 517.988 530.961 512C529.565 480.17 493.28 478 469 478L466 493C479.53 493 496.553 493.855 506.671 504.301C510.114 507.856 510.715 512.705 513.688 516.391C517.072 520.589 521.692 523.132 524.467 528C527.193 532.782 527.543 549.333 531.318 551.258C543.232 557.332 553.909 542.657 559.575 534.565C577.442 509.047 580 483.219 580 453L577 453z"/>
<path style="fill:#f98353; stroke:none;" d="M169 454L169 461L170 461L169 454z"/>
<path style="fill:#926256; stroke:none;" d="M842 454L843 455L842 454z"/>
<path style="fill:#946460; stroke:none;" d="M187 455L188 456L187 455z"/>
<path style="fill:#ac6a48; stroke:none;" d="M580 455L580 474L581 474L580 455z"/>
<path style="fill:#976862; stroke:none;" d="M188 457L189 458L188 457z"/>
<path style="fill:#fde3cc; stroke:none;" d="M258 489C271.816 484.124 260.646 510.817 260 519C279.011 507.163 289.472 488.054 301 469L282 476L291 457C283.543 457.987 266.653 462.111 262.012 468.509C258.52 473.324 258.004 483.245 258 489z"/>
<path style="fill:#f85a01; stroke:none;" d="M427 457C415.007 479.879 430.628 502.513 448 516.286C452.406 519.778 457.378 525.344 463 526.686C479.002 530.506 496.861 524.158 513 528L514 527C512.287 519.807 513.41 512.491 508.891 506.09C495.749 487.473 464.074 497.424 446 486.521C433.57 479.022 432.048 468.915 427 457z"/>
<path style="fill:#fa9a67; stroke:none;" d="M618 459L617 466L618 466L620 459L618 459z"/>
<path style="fill:#f9d2ab; stroke:none;" d="M769 638L768 638L767 644L763 643L761 651L757 650L754 654L752 659C752.026 651.294 754.412 648.673 761 645L764 639L764 634C758.226 623.18 762 603.176 762 591L762 503C762 490.477 759.067 473.642 764 462L757 459C742.716 461.578 729.434 476.307 720.579 486.914C698.983 512.785 681.474 540.725 664.461 569.718C658.813 579.342 654.514 589.769 649.46 599.715C647.588 603.399 644.179 607.806 646.912 611.83C652.008 619.334 661.97 623.996 668.911 629.494C686.343 643.302 702.71 665.381 727 665.985C744.072 666.41 767.87 658.903 769 638z"/>
<path style="fill:#580000; stroke:none;" d="M169 461C160.38 486.457 161 520.218 161 547C168.125 542.75 165.454 534.05 166.285 527C167.07 520.349 166.595 513.574 167.959 507C170.865 492.994 178.392 474.438 171 461L169 461z"/>
<path style="fill:#fa6700; stroke:none;" d="M161 547L164 488L163 488L162 504L161 504L161 498L160 498C149.227 506.162 126.203 497.057 113.285 500.46C104.408 502.799 101.961 511.662 98.6134 519C91.0647 535.547 84.3799 554.596 84 573L85 573C90.9842 565.334 103.619 548.807 113 560L122 564L122 560C134.333 560 146.667 559.941 159 560.001C164.286 560.026 170.034 562.362 173 557L174 557L174 560L176 558L177 558C180.981 562.556 195.167 560 201 560L249 560C257.018 560 266.283 561.281 274 559L279 565C278.177 568.602 277.874 570.738 281 573L309.424 522L335 490C298.494 480.555 280.858 510.775 251 524L264 461C253.619 462.619 243.665 470.71 235 476.309C205.243 495.536 187.341 524.215 161 547z"/>
<path style="fill:#95665e; stroke:none;" d="M856 462L857 463L856 462z"/>
<path style="fill:#93645c; stroke:none;" d="M860 462L861 463L860 462z"/>
<path style="fill:#961500; stroke:none;" d="M304 466L304 467L328 466L304 466z"/>
<path style="fill:#e8c3bd; stroke:none;" d="M174 466L174 477L175 477L174 466z"/>
<path style="fill:#540000; stroke:none;" d="M280 505C291.472 498.062 301.993 488.242 316 487.093C322.897 486.528 328.402 488.691 335 490L330 497C347.382 499.215 367.525 511.768 371 530C382.019 518.386 373.74 491.039 363.826 481.286C350.997 468.666 320.4 458.656 303.04 468.009C292.594 473.638 281.6 493.456 280 505z"/>
<path style="fill:#ffba90; stroke:none;" d="M296 470L303 468L296 470z"/>
<path style="fill:#ffae80; stroke:none;" d="M414 467L414 468L422 468L422 480L423 480L424 467L414 467z"/>
<path style="fill:#f8c596; stroke:none;" d="M430 467C433.829 482.97 450.611 491.774 466 493L469 478L462 478L465 471C453.424 466.569 442.191 467 430 467z"/>
<path style="fill:#fb8d50; stroke:none;" d="M260 468L259 479L260 479L260 468z"/>
<path style="fill:#b97663; stroke:none;" d="M403 468L403 469L409 469L403 468z"/>
<path style="fill:#f6cb9e; stroke:none;" d="M408 479L399 504C406.955 503.813 411.227 499.976 417 495L411 526L412 526L419 522L416 540L437 540L422.746 517L423.778 486L422 468C415.126 468 406.555 467.274 400.189 470.394C390.888 474.953 403.711 478.715 408 479z"/>
<path style="fill:#c18569; stroke:none;" d="M457 468L457 469L460 469L457 468z"/>
<path style="fill:#fe8649; stroke:none;" d="M293 469L293 470L296 470L293 469z"/>
<path style="fill:#fdb293; stroke:none;" d="M283 470C282.166 473.137 281.411 475.231 285 476L285 475L283 470z"/>
<path style="fill:#ff9f6b; stroke:none;" d="M289 471L289 472L293 471L289 471z"/>
<path style="fill:#ffa571; stroke:none;" d="M397 470L397 473L398 473L399 470L397 470z"/>
<path style="fill:#f8804b; stroke:none;" d="M423 470L423 483L424 483L423 470z"/>
<path style="fill:#da7b43; stroke:none;" d="M615 470L617 474L615 470z"/>
<path style="fill:#fc6901; stroke:none;" d="M389 474L387 480L386 477L357 475C364.363 485.005 374.271 492.602 375.871 506.039C376.973 515.288 373.391 523.057 373 532L371 531L355 557L387 553L361 585C389.303 584.416 426.147 568.124 438 541C432.511 541.113 426.394 543.106 421 541.486C403.346 536.185 413.434 510.326 415 498C411.06 499.633 406.478 503.91 402.001 503.469C390.481 502.336 391.579 485.655 393 478L389 474z"/>
<path style="fill:#f68b53; stroke:none;" d="M462 475C462.796 478.716 465.637 478 469 478L469 477L462 475z"/>
<path style="fill:#520100; stroke:none;" d="M395 476C394.812 485.09 390.859 496.381 399 503L408 479L395 476z"/>
<path style="fill:#991e00; stroke:none;" d="M469 477L469 478L480 478L469 477z"/>
<path style="fill:#a22200; stroke:none;" d="M394 478L393 496L394 496L394 478z"/>
<path style="fill:#a32203; stroke:none;" d="M164 480L164 493L165 493L164 480z"/>
<path style="fill:#d6926f; stroke:none;" d="M187 480L189 485L187 480z"/>
<path style="fill:#9c6261; stroke:none;" d="M173 481L174 482L173 481z"/>
<path style="fill:#ffa98d; stroke:none;" d="M190 482L191 485L190 482z"/>
<path style="fill:#ef7b4c; stroke:none;" d="M119 483L114 492L115 492L119 483z"/>
<path style="fill:#c59892; stroke:none;" d="M172 483L172 486L173 486L172 483z"/>
<path style="fill:#ff9770; stroke:none;" d="M257 486L257 490L258 490L257 486z"/>
<path style="fill:#dfbab4; stroke:none;" d="M189 487L189 491L190 491L189 487z"/>
<path style="fill:#550002; stroke:none;" d="M251 524C262.815 520.779 259.696 509.602 263.039 500.424C264.059 497.624 267.76 491.474 265.868 488.608C260.996 481.227 255.394 495.989 255.05 499C254.669 502.33 254.309 505.682 253.83 509C253.104 514.036 251.644 518.929 251 524z"/>
<path style="fill:#891a00; stroke:none;" d="M312 487L312 488L328 488L312 487z"/>
<path style="fill:#540000; stroke:none;" d="M424 487C421.986 491.745 421.139 496.844 421.015 502C420.164 537.263 452.282 543.9 469.37 568.59C476.447 578.816 474.825 591.379 476.425 603C478.153 615.542 483.81 627.666 492.086 637.246C500.008 646.417 508.82 650.37 518 657.664C542.343 677.006 567.541 696.721 588.414 719.565C603.614 736.2 615.139 749.417 617 773L618 773C618.014 751.833 620.945 731.826 611.18 712C603.847 697.112 588.435 686.31 576 675.92C549.49 653.768 517.801 633.291 495.3 607C484.48 594.357 479.931 579.106 477.325 563C476.092 555.377 477.381 548.318 473.954 541C467.42 527.045 451.883 519.915 441 509.907C433.418 502.933 430.378 494.228 424 487z"/>
<path style="fill:#9a6754; stroke:none;" d="M259 488L260 489L259 488z"/>
<path style="fill:#aa2900; stroke:none;" d="M300 491L300 492L304 491L300 491z"/>
<path style="fill:#9a685d; stroke:none;" d="M188 491L189 492L188 491z"/>
<path style="fill:#911700; stroke:none;" d="M472 493L472 494L480 494L472 493z"/>
<path style="fill:#c03700; stroke:none;" d="M480 494L480 495L488 495L480 494z"/>
<path style="fill:#f4864b; stroke:none;" d="M111 495L110 498L111 495z"/>
<path style="fill:#fc9254; stroke:none;" d="M416 495L414 504L415 504L416 495z"/>
<path style="fill:#a22803; stroke:none;" d="M526 496L527 500L528 500L526 496z"/>
<path style="fill:#fadcc0; stroke:none;" d="M316 514L338 516C336.718 525.575 325.61 534.019 319.71 541.286C308.31 555.325 299.043 571.082 291.094 587.286C281.055 607.751 272.238 635.94 274.108 659C277.017 694.871 307.004 732.06 340 744.438C350.699 748.451 363.794 747 375 747L375 746C367.627 744.949 357.708 742.875 352 738L360 738L360 736C350.307 734.454 354 716.531 354 709L354 648C354 640.973 356.142 629.914 352 624L355 622L355 621C353.351 618.389 351.031 608 354 608L353 591C345.786 587.351 349.102 579.268 353 574L355 578L354 547L355 546L361 547C360.548 539.242 366.048 525.539 356 524C356.168 530.435 357.258 534.293 352 539L353 508L361 513C357.433 505.529 337.67 494.434 329.015 498.12C323.421 500.503 318.585 508.772 316 514z"/>
<path style="fill:#b26f66; stroke:none;" d="M332 497L332 498L335 498L332 497z"/>
<path style="fill:#91645e; stroke:none;" d="M187 498L188 499L187 498z"/>
<path style="fill:#ee834f; stroke:none;" d="M108 499L107 503L108 503L108 499z"/>
<path style="fill:#d9ae9d; stroke:none;" d="M262 500L262 505L263 505L262 500z"/>
<path style="fill:#926562; stroke:none;" d="M169 502L170 503L169 502z"/>
<path style="fill:#b53506; stroke:none;" d="M375 502L375 522L376 522L375 502z"/>
<path style="fill:#e9711b; stroke:none;" d="M607 502L586 530C594.434 523.549 604.268 511.499 609 502L607 502z"/>
<path style="fill:#ffd3b1; stroke:none;" d="M105 503L105 506L106 506L107 503L105 503z"/>
<path style="fill:#cd9a99; stroke:none;" d="M168 503L168 506L169 506L168 503z"/>
<path style="fill:#b5360d; stroke:none;" d="M530 504L531 520L532 520L530 504z"/>
<path style="fill:#f99b67; stroke:none;" d="M104.333 506.667L104.667 507.333L104.333 506.667z"/>
<path style="fill:#e1b2ac; stroke:none;" d="M185 507L185 511L186 511L185 507z"/>
<path style="fill:#f8cea4; stroke:none;" d="M353 508L352 539C358.546 535.136 356.4 530.355 356 524C365.247 526.522 360.07 539.134 361 547L355 546L354 547L355 578L353 574C348.483 578.3 345.304 588.663 353 591C351.64 596.713 351.236 602.688 354 608C350.325 608.455 352.988 618.519 355 621L355 622L352 624C355.98 631.156 354 642.007 354 650L354 709C354 716.448 350.149 735.232 360 736L360 738L352 738C356.338 743.26 368.293 745.518 375 746L375 747L355 747L355 748C380.472 748.211 405.185 748.643 427.285 733.343C431.406 730.491 438.255 727.977 440.972 723.621C446.041 715.495 440 698.14 440 689L440 627C440 614.353 438.753 601.272 442 589L439 588L437 583L440 579C432.929 578.869 425.342 591.111 419.715 595.459C408.323 604.262 392.155 611.817 377.996 614.572C374.762 615.201 356.413 620.235 356.331 614.981C356.28 611.689 362.849 608.583 365.081 606.822C371.858 601.476 379.682 594.612 382 586L350 589L359.762 576.7L370 558L353 558C363.038 545.551 380.871 530.184 363.532 514.498C360.587 511.835 356.403 510.046 353 508z"/>
<path style="fill:#b43910; stroke:none;" d="M162 509L162 517L163 517L162 509z"/>
<path style="fill:#fba165; stroke:none;" d="M318 509L317 512L318 509z"/>
<path style="fill:#eb7a38; stroke:none;" d="M195 510L184 524C188.021 521.108 195.115 515.226 195 510z"/>
<path style="fill:#c28775; stroke:none;" d="M314 514L314 515L328 515L314 514z"/>
<path style="fill:#956758; stroke:none;" d="M260 514L261 515L260 514z"/>
<path style="fill:#540000; stroke:none;" d="M273 656L274 656C276.225 644.016 276.461 631.949 279.439 620.015C284.523 599.643 294.363 580.919 305.051 563C311.367 552.411 319.12 542.457 327.21 533.169C331.8 527.899 337.507 523.331 338 516C331.034 515.856 321.802 512.933 315.09 515.603C306.224 519.131 299.177 536.986 294.73 545C282.727 566.632 273.79 592.17 272.09 617C271.195 630.057 272.999 643.002 273 656z"/>
<path style="fill:#ffbd8e; stroke:none;" d="M99 516L98 520L99 520L99 516z"/>
<path style="fill:#936660; stroke:none;" d="M184 516L185 517L184 516z"/>
<path style="fill:#ff8201; stroke:none;" d="M513 517L514 527L513 528C498.293 523.653 478.347 527 463 527C468.903 535.413 474.801 541.696 477.391 552C480.004 562.394 478.356 573.417 481.623 584C487.806 604.033 508.902 627.488 528 636L525 632L532 632L532 631L521 629L522 626L518 625L518 624L529 623C537.42 637.986 557.661 634 572 634C606.754 634 647.145 628.566 680 640C669.948 626.866 652.806 616.341 639.999 605.83C621.557 590.693 601.854 568.413 579.83 558.761C570.867 554.832 560.692 553.506 551 553.039C542.669 552.637 534.811 554.441 528 549L520.189 542.999L513 517z"/>
<path style="fill:#f5be85; stroke:none;" d="M514 517C514.123 527.538 517.52 546.108 529 549C529 536.242 526.196 523.643 514 517z"/>
<path style="fill:#f9a777; stroke:none;" d="M97.3333 520.667L97.6667 521.333L97.3333 520.667z"/>
<path style="fill:#ffdabb; stroke:none;" d="M95 522L93 530L94 530L97 522L95 522z"/>
<path style="fill:#5d0000; stroke:none;" d="M416 539L419 522C408.952 522.764 409.354 533.732 416 539z"/>
<path style="fill:#976662; stroke:none;" d="M166 525L167 526L166 525z"/>
<path style="fill:#fea35a; stroke:none;" d="M516 526L518 540L519 540L516 526z"/>
<path style="fill:#a1351b; stroke:none;" d="M529 526L531 529L529 526z"/>
<path style="fill:#b94000; stroke:none;" d="M372 529L373 532L372 529z"/>
<path style="fill:#ffa876; stroke:none;" d="M92.3333 532.667L92.6667 533.333L92.3333 532.667z"/>
<path style="fill:#ffd2b4; stroke:none;" d="M91 535L90 540L91 540L91 535z"/>
<path style="fill:#fa9a4e; stroke:none;" d="M586 537L586 538L590 539L590 538L586 537z"/>
<path style="fill:#f0843c; stroke:none;" d="M368 538L366 544L367 544L368 538z"/>
<path style="fill:#ffa45b; stroke:none;" d="M433 540L433 541L439 542L438 539L433 540z"/>
<path style="fill:#eb945f; stroke:none;" d="M89 540L89 544L90 544L89 540z"/>
<path style="fill:#f2a160; stroke:none;" d="M418 540L418 541L432 542L432 541L418 540z"/>
<path style="fill:#942400; stroke:none;" d="M661 540L660 544L661 544L661 540z"/>
<path style="fill:#f6c491; stroke:none;" d="M437 542C435.454 552.588 423.079 558.051 417 566L441 566L440 580L437 583L439 588L442 589C437.434 601.528 440 617.775 440 631C440 661.762 442 692.547 442 723C450.363 719.483 456.162 712.582 462.674 706.514C479.241 691.078 496.884 671.421 507 651C492.97 640.955 481.627 624.757 477.444 608C474.42 595.882 476.602 582.948 471.391 571.17C467.448 562.256 457.756 554.965 450.001 549.539C445.597 546.459 442.534 542.742 437 542z"/>
<path style="fill:#ffbe8d; stroke:none;" d="M88 544L88 547L89 547L88 544z"/>
<path style="fill:#ffae6a; stroke:none;" d="M436 544L432 552L433 552L436 544z"/>
<path style="fill:#f89d4c; stroke:none;" d="M522 546L528 551L522 546z"/>
<path style="fill:#8b1e01; stroke:none;" d="M477 551L477 565L478 565L477 551z"/>
<path style="fill:#fda75a; stroke:none;" d="M543 551C546.9 555.464 563.914 554.739 570 555L570 554L543 551z"/>
<path style="fill:#fd9c58; stroke:none;" d="M86 552L85 560L86 560L86 552z"/>
<path style="fill:#ae3b00; stroke:none;" d="M531 552L531 553L542 553L531 552z"/>
<path style="fill:#b43700; stroke:none;" d="M385 553L386 556L387 556L387 553L385 553z"/>
<path style="fill:#a93504; stroke:none;" d="M654 553L654 556L655 556L654 553z"/>
<path style="fill:#540000; stroke:none;" d="M350 589L382 586C378.76 594.132 371.79 600.754 365.081 606.16C362.641 608.126 355.803 611.408 355.748 614.981C355.706 617.665 358.754 617.912 360.719 617.526C368.149 616.063 376.391 615.946 383.576 613.315C403.433 606.044 440.708 591.95 441 566C436.196 566.379 430.707 568.89 426.05 568.612C422.268 568.386 419.052 565.578 415.09 566.827C395.852 572.892 380.525 585.941 359 586C368.349 575.799 383.094 569.069 386 554C369.889 555.081 368.775 565.125 359.762 575.826C356.013 580.277 350.487 582.821 350 589M82 607C94.8335 600.889 107.114 585.481 110.561 571.961C111.659 567.652 114.265 558.278 108.852 555.873C103.288 553.403 96.5904 559.462 93.0432 563.04C84.097 572.066 78.3619 594.687 82 607z"/>
<path style="fill:#fda25b; stroke:none;" d="M353 558L371 558L371 556L356 555L353 558z"/>
<path style="fill:#891c00; stroke:none;" d="M371 556L371 557L381 556L371 556z"/>
<path style="fill:#fe7800; stroke:none;" d="M173 557C169.037 561.642 163.631 560.002 158 560L122 560L122 564L113 560C110.796 582.141 98.2157 602.2 100 625L101 625L101 622L102 622L104 624L104 618L103 618L101 620L101 612L102 612L103 616L104 616L104 608L106 608L106 614L109 617L110 617L110 608L113 608L113 612L218 612C228.851 612 249.294 615.962 258 609L258 614C263.357 614.095 268.273 615.167 270 609L271 609L271 614L273 614L283 570L282 570L281 573L279 565L274 559C252.043 564.227 224.577 560 202 560C194.971 560 182.747 562.354 177 558L176 558L173 557z"/>
<path style="fill:#c54400; stroke:none;" d="M112 558L112 565L113 565L112 558z"/>
<path style="fill:#f89c51; stroke:none;" d="M84 562L84 567L85 567L84 562z"/>
<path style="fill:#e4af8d; stroke:none;" d="M83 564L85 574L83 564z"/>
<path style="fill:#ac745d; stroke:none;" d="M423 568L423 569L430 569L423 568z"/>
<path style="fill:#c6663e; stroke:none;" d="M87 569L86 573L87 573L87 569z"/>
<path style="fill:#9b2a00; stroke:none;" d="M408 570L408 571L412 570L408 570z"/>
<path style="fill:#ab400c; stroke:none;" d="M400.667 574.333L401.333 574.667L400.667 574.333z"/>
<path style="fill:#bc4c00; stroke:none;" d="M108 576L108 580L109 580L108 576z"/>
<path style="fill:#942e08; stroke:none;" d="M643 576L641 578L641 579C643.251 578.527 644.118 578.14 643 576z"/>
<path style="fill:#be7a65; stroke:none;" d="M474 579L474 583L475 583L474 579z"/>
<path style="fill:#b74507; stroke:none;" d="M378 582L378 583L384 582L378 582z"/>
<path style="fill:#926b6c; stroke:none;" d="M83 582L84 583L83 582z"/>
<path style="fill:#a13506; stroke:none;" d="M278 582L278 586L279 586L278 582z"/>
<path style="fill:#972c00; stroke:none;" d="M359 584C361.89 587.307 367.082 585.727 371 585L371 584L359 584z"/>
<path style="fill:#972700; stroke:none;" d="M277 586L277 590L278 590L277 586z"/>
<path style="fill:#ffcf9a; stroke:none;" d="M104 587L104 591L105 591L106 587L104 587z"/>
<path style="fill:#97696b; stroke:none;" d="M82 590L83 591L82 590z"/>
<path style="fill:#92706f; stroke:none;" d="M97 592L98 593L97 592z"/>
<path style="fill:#896863; stroke:none;" d="M94 595L95 596L94 595z"/>
<path style="fill:#916866; stroke:none;" d="M81 596L82 597L81 596z"/>
<path style="fill:#ffbf85; stroke:none;" d="M102 597L101 605L102 605L102 597z"/>
<path style="fill:#966a67; stroke:none;" d="M90 599L91 600L90 599z"/>
<path style="fill:#dcb5b6; stroke:none;" d="M80 600L80 604L81 604L80 600z"/>
<path style="fill:#9d6856; stroke:none;" d="M285 601L286 602L285 601z"/>
<path style="fill:#916f6e; stroke:none;" d="M86 604L87 605L86 604z"/>
<path style="fill:#ffa759; stroke:none;" d="M100 605L100 611L101 611L102 605L100 605z"/>
<path style="fill:#896c66; stroke:none;" d="M81 606L82 607L81 606z"/>
<path style="fill:#97726c; stroke:none;" d="M84 606L85 607L84 606z"/>
<path style="fill:#ff8b00; stroke:none;" d="M104 608L104 616L103 616L102 612L101 612L101 620L103 618L104 618L104 624L102 622L101 622L101 625L100 625L100 620L99 620C90.4253 640.321 94 668.395 94 690L95 690L95 665L272 665L271 609L270 609C267.46 614.592 263.474 614.03 258 614L258 609L256 612L113 612L113 608L110 608L110 617L109 617L106 614L106 608L104 608z"/>
<path style="fill:#ff9700; stroke:none;" d="M771 608C772.951 617.331 775.232 624.533 771.971 634C769.869 640.106 767.685 646.937 763.481 651.946C760.083 655.995 754.734 659.459 750.004 661.75C745.764 663.804 741.731 666.069 736.999 666.71C711.08 670.22 700.298 650.333 680 639.777C672.263 635.754 657.858 634.066 649 634.003C622.336 633.815 595.664 634 569 634C553.449 634 540.099 636.078 529 623L518 624L518 625L522 626L521 629L532 631L532 632L525 632L546 651.614L581 681L608 705L607 702L802 702L800 698L803 704L804 704C806.465 675.735 808.812 653.135 792.786 627.83C787.891 620.1 780.263 610.492 771 608z"/>
<path style="fill:#eb9f4b; stroke:none;" d="M99 612L99 616L100 616L99 612z"/>
<path style="fill:#ffdcb2; stroke:none;" d="M98 614L97 624L98 624L98 614z"/>
<path style="fill:#b84a00; stroke:none;" d="M271 614L271 640L272 640L271 614z"/>
<path style="fill:#bc7f6a; stroke:none;" d="M362 616L362 617L367 617L362 616z"/>
<path style="fill:#f3ac5a; stroke:none;" d="M773 616L772 634L773 634L773 616z"/>
<path style="fill:#fec485; stroke:none;" d="M833 617C835.59 621.013 852.585 618 858 618L833 617z"/>
<path style="fill:#f38a1d; stroke:none;" d="M837 618C839.246 621.884 842.694 622.621 847 623L843 620L843 619L880 623C867.163 617.235 850.758 618 837 618z"/>
<path style="fill:#ffa600; stroke:none;" d="M843 619L843 620C851.707 625.428 860.997 633.154 867.557 640.999C887.413 664.743 883.69 699.947 858 718.251C837.078 733.157 808.837 737.817 784 733L784 731C792.643 727.151 797.908 717.362 801.528 709C803.07 705.436 804.881 699.046 800 698L802 702L607 702L618.102 732L619 769L620 769L622.893 746.894L642 745L693 745L887 745L942 745L963 745C969.585 732.614 964.606 710.688 960.871 698.004C945.34 645.26 895.067 620.075 843 619z"/>
<path style="fill:#ffc487; stroke:none;" d="M870 620L870 621L874 621L870 620z"/>
<path style="fill:#ffd2a2; stroke:none;" d="M874 621L874 622L885 624L874 621z"/>
<path style="fill:#946354; stroke:none;" d="M278 624L279 625L278 624z"/>
<path style="fill:#f5a754; stroke:none;" d="M848 624L851 626L848 624z"/>
<path style="fill:#ffd8ae; stroke:none;" d="M886 624L886 625L895 627L886 624z"/>
<path style="fill:#fdbe77; stroke:none;" d="M96 626L96 632L97 632L96 626z"/>
<path style="fill:#f39d48; stroke:none;" d="M792 627L794 630L792 627z"/>
<path style="fill:#f9ad59; stroke:none;" d="M893 627L893 628L898 629L898 628L893 627z"/>
<path style="fill:#ffbd6f; stroke:none;" d="M667 628L672 632L667 628z"/>
<path style="fill:#fab46e; stroke:none;" d="M900.667 630.333L901.333 630.667L900.667 630.333z"/>
<path style="fill:#f6b271; stroke:none;" d="M902.667 631.333L903.333 631.667L902.667 631.333z"/>
<path style="fill:#ffdca8; stroke:none;" d="M95 632L95 639L96 639L95 632z"/>
<path style="fill:#f8b366; stroke:none;" d="M904.667 632.333L905.333 632.667L904.667 632.333z"/>
<path style="fill:#5d0600; stroke:none;" d="M768 634L769 641L770 641L772 634L768 634z"/>
<path style="fill:#ffba6b; stroke:none;" d="M798 636L799 640L800 640L798 636z"/>
<path style="fill:#ffce98; stroke:none;" d="M914 637L917 639L914 637z"/>
<path style="fill:#ffd699; stroke:none;" d="M917 639L920 641L917 639z"/>
<path style="fill:#ffc371; stroke:none;" d="M94 640L94 652L95 652L94 640z"/>
<path style="fill:#ffd9aa; stroke:none;" d="M920 641L923 643L920 641z"/>
<path style="fill:#c98e86; stroke:none;" d="M832 644L832 645L859 645L832 644z"/>
<path style="fill:#ae4100; stroke:none;" d="M272 645L272 650L273 650L272 645z"/>
<path style="fill:#ffb45b; stroke:none;" d="M767 645L766 648L767 645z"/>
<path style="fill:#550000; stroke:none;" d="M830 645C831.213 652.606 846.505 655.228 852.753 659.503C864.737 667.702 871.301 679.02 877 692C883.349 683.089 882.496 652.071 870.895 646.858C859.847 641.894 841.882 645 830 645z"/>
<path style="fill:#faa13d; stroke:none;" d="M765 648L760 656L765 648z"/>
<path style="fill:#b8530d; stroke:none;" d="M508.667 650.333L509.333 650.667L508.667 650.333z"/>
<path style="fill:#ffaa01; stroke:none;" d="M274 656L273 656L272 665L95 665C95 707.772 99.9119 748.156 122 786L123 786L117 771L118 771L119 774L120 774L119 768L124 767L122 773C131.179 766.304 140.912 768 152 768L212 768L448 768L512 768C520.017 768 534.416 770.803 541.701 767.397C544.415 766.127 545.817 762.068 548 760L551 772C563.296 762.51 572.802 741.95 579.056 728C580.686 724.362 586.414 718.672 585.008 714.464C583.494 709.93 576.486 705.717 573 702.729C563.067 694.215 553.119 685.719 543 677.424C534.993 670.861 527.108 664.096 519 657.664C516.426 655.623 512.623 651.586 509.09 651.632C502.478 651.717 498.38 665.52 495.319 670C483.282 687.618 467.751 701.016 452.545 715.661C417.35 749.556 360.525 762.598 319 732.96C306.339 723.924 297.177 712.16 289.084 699.089C281.268 686.465 274.01 671.075 274 656z"/>
<path style="fill:#fcce92; stroke:none;" d="M93 652L93 662L94 662L93 652z"/>
<path style="fill:#ffb357; stroke:none;" d="M805 656L807 685L808 685C808 675.524 809.229 664.782 805 656z"/>
<path style="fill:#ffbb66; stroke:none;" d="M704 658L707 660L704 658z"/>
<path style="fill:#f8ad52; stroke:none;" d="M707 660L710 662L707 660z"/>
<path style="fill:#9a635c; stroke:none;" d="M855 661L856 662L855 661z"/>
<path style="fill:#f9ab47; stroke:none;" d="M274 662L275 668L276 668L274 662z"/>
<path style="fill:#aa4e0f; stroke:none;" d="M93 663L94 699L95 699L93 663z"/>
<path style="fill:#f2b299; stroke:none;" d="M92 664L92 674L93 674L92 664z"/>
<path style="fill:#fcb660; stroke:none;" d="M714 664L714 665L722 666L714 664z"/>
<path style="fill:#f6a02f; stroke:none;" d="M497 666L470 700L490.754 677L497 666z"/>
<path style="fill:#ffc073; stroke:none;" d="M722 666L722 667L739 667L722 666z"/>
<path style="fill:#ffd49c; stroke:none;" d="M808 666L808 685L809 685L808 666z"/>
<path style="fill:#b85200; stroke:none;" d="M880 667L880 680L881 680L880 667z"/>
<path style="fill:#f2ab51; stroke:none;" d="M946 667L948 670L946 667z"/>
<path style="fill:#98665b; stroke:none;" d="M865 671L866 672L865 671z"/>
<path style="fill:#926963; stroke:none;" d="M866 672L867 673L866 672z"/>
<path style="fill:#540000; stroke:none;" d="M92 675C92 697.809 90.2944 721.444 94.2554 744C102.174 789.094 123.796 837.498 160 867L161 867C164.35 860.59 157.681 832.75 152.853 827C129.591 799.298 109.851 769.536 100.84 733.961C97.6854 721.509 95.6804 708.739 94.1551 696C93.3847 689.565 94.4621 680.868 92 675z"/>
<path style="fill:#fdaa4a; stroke:none;" d="M278 678L280 681L278 678z"/>
<path style="fill:#95665e; stroke:none;" d="M870 678L871 679L870 678z"/>
<path style="fill:#c6a09f; stroke:none;" d="M91 679L91 691L92 691L91 679z"/>
<path style="fill:#ffcf87; stroke:none;" d="M280 680L281 686L282 686L280 680z"/>
<path style="fill:#f9bf6d; stroke:none;" d="M954 680L956 685L957 685L954 680z"/>
<path style="fill:#550000; stroke:none;" d="M807 685C806.653 701.803 799.042 720.102 785 730L785 732C789.907 733.379 800.717 736.519 805.262 732.973C808.19 730.689 808.911 724.395 809.42 720.996C811.218 708.994 809.099 696.98 809 685L807 685z"/>
<path style="fill:#f2ac33; stroke:none;" d="M957 685L958 692L959 692L957 685z"/>
<path style="fill:#a17876; stroke:none;" d="M91 691L91 714L92 714L91 691z"/>
<path style="fill:#f8c49c; stroke:none;" d="M876 691L876 695L877 695L876 691z"/>
<path style="fill:#fdc56e; stroke:none;" d="M285 693L287 696L285 693z"/>
<path style="fill:#f5b039; stroke:none;" d="M960 694L961 700L962 700L960 694z"/>
<path style="fill:#832800; stroke:none;" d="M805 696L804 703L805 703L805 696z"/>
<path style="fill:#e6b7ad; stroke:none;" d="M810 696L810 714L811 714L810 696z"/>
<path style="fill:#ffd38c; stroke:none;" d="M875 696L874 700L875 700L875 696z"/>
<path style="fill:#f8c470; stroke:none;" d="M962 700L964 715L965 715L962 700z"/>
<path style="fill:#f7b74d; stroke:none;" d="M870 704C864.285 712.635 856.209 718.481 847 723L847 724C857.256 721.78 867.287 713.232 872 704L870 704z"/>
<path style="fill:#9c3e00; stroke:none;" d="M96 710L96 715L97 715L96 710z"/>
<path style="fill:#ffd08f; stroke:none;" d="M296 711L301 716L296 711z"/>
<path style="fill:#cd6e12; stroke:none;" d="M97 712L97 718L98 718L97 712z"/>
<path style="fill:#8b3300; stroke:none;" d="M798 715L797 718L798 715z"/>
<path style="fill:#fbba52; stroke:none;" d="M965 715L965 732L966 732L965 715z"/>
<path style="fill:#ffedc2; stroke:none;" d="M966 715L966 737L967 737L966 715z"/>
<path style="fill:#bc6600; stroke:none;" d="M613 716L614 720L615 720L613 716z"/>
<path style="fill:#f6c493; stroke:none;" d="M585 717C582.728 720.719 577.163 729.486 579.23 733.791C581.193 737.879 588.188 739.981 588.383 745C588.694 752.979 578.691 758.234 580 767L581 767L589 758L588 789L588 855L588 1080L676 1080L676 968L677 909C640.312 900.584 615.583 859.575 614.039 824C613.161 803.757 619.439 782.417 615.741 762.17C612.024 741.816 599.14 732.023 587 717L585 717z"/>
<path style="fill:#ffd28f; stroke:none;" d="M302 718L309 724L302 718z"/>
<path style="fill:#fab131; stroke:none;" d="M581 723L578 730L579 730L581 723z"/>
<path style="fill:#fdba45; stroke:none;" d="M819 734L847 725C841.948 723.94 822.373 730.08 819 734z"/>
<path style="fill:#a64b00; stroke:none;" d="M617 729L618 739L619 739L617 729z"/>
<path style="fill:#fab442; stroke:none;" d="M426 733L426 734L432 732L426 733z"/>
<path style="fill:#a64c00; stroke:none;" d="M784 731L791 734L791 733L784 731z"/>
<path style="fill:#fec67c; stroke:none;" d="M806 732L819 734L819 733L806 732z"/>
<path style="fill:#862e00; stroke:none;" d="M101 733L101 738L102 738L101 733z"/>
<path style="fill:#540000; stroke:none;" d="M158 825C169.553 824.127 180.719 845.712 188.119 853.4C209.042 875.137 234.533 892.895 263.17 903.037C359.59 937.187 461.174 906.566 530.21 833.08C548.258 813.868 563.753 791.221 576.625 768.271C579.916 762.404 588.831 751.808 588.708 745C588.619 740.068 581.836 736.446 579 733C574.255 735.528 572.87 740.412 570.199 744.83C565.434 752.712 559.903 760.47 554.576 768C538.323 790.972 519.795 812.476 498 830.385C422.625 892.32 315.184 904.848 230 854.982C215.132 846.279 201.709 834.753 190.17 822C182.685 813.728 175.909 802.078 166.985 795.434C161.839 791.602 155.444 793.378 154.228 800.001C152.75 808.059 155.433 817.418 158 825z"/>
<path style="fill:#9b4f00; stroke:none;" d="M965 733L965 740L966 740L965 733z"/>
<path style="fill:#c36800; stroke:none;" d="M791 734L791 735L806 735L791 734z"/>
<path style="fill:#a84c0b; stroke:none;" d="M574.333 736.667L574.667 737.333L574.333 736.667z"/>
<path style="fill:#956f6c; stroke:none;" d="M93 737L94 738L93 737z"/>
<path style="fill:#540000; stroke:none;" d="M966 738C955.157 782.012 925.745 817.34 881 830.485C863.269 835.694 846.081 835.05 828 835L828 836C847.444 847.275 874.247 861.762 898 855.505C933.165 846.241 958.485 808.03 966.17 775C968.219 766.194 971.784 745.635 966 738z"/>
<path style="fill:#926b66; stroke:none;" d="M967 738L968 739L967 738z"/>
<path style="fill:#cc701b; stroke:none;" d="M619 739L619 757L620 757L619 739z"/>
<path style="fill:#ffbf67; stroke:none;" d="M332 740L335 742L332 740z"/>
<path style="fill:#9e4100; stroke:none;" d="M964 741L963 750L964 750L964 741z"/>
<path style="fill:#a3460d; stroke:none;" d="M103.333 742.667L103.667 743.333L103.333 742.667z"/>
<path style="fill:#ffb400; stroke:none;" d="M962 743C954.948 746.763 944.847 745 937 745L881 745L701 745L648 745C641.12 745 630.815 743.07 624.344 745.514C619.939 747.178 621.017 753.281 620.999 757C620.951 766.809 618 776.006 618 786C618 825.13 636.016 869.128 679 878C676.676 869.932 670.516 863.881 667.832 855.911C660.671 834.645 663.574 803.308 683 789L688 816L689 816L689 808L853 808L899 808L922 810C937.78 797.475 950.664 782.907 958.265 764C960.707 757.927 964.686 749.461 962 743z"/>
<path style="fill:#bb6502; stroke:none;" d="M104 744L104 747L105 747L104 744z"/>
<path style="fill:#862f00; stroke:none;" d="M570 744L569 747L570 744z"/>
<path style="fill:#956767; stroke:none;" d="M94 746L95 747L94 746z"/>
<path style="fill:#f8c16e; stroke:none;" d="M348 746L348 747L355 748L348 746z"/>
<path style="fill:#fdbc5e; stroke:none;" d="M390 747L390 748L398 747L390 747z"/>
<path style="fill:#e0c5bc; stroke:none;" d="M95 747L95 751L96 751L95 747z"/>
<path style="fill:#fab953; stroke:none;" d="M355 748L355 749L390 749L355 748z"/>
<path style="fill:#c0610d; stroke:none;" d="M962.333 750.667L962.667 751.333L962.333 750.667z"/>
<path style="fill:#a06464; stroke:none;" d="M96 754L97 755L96 754z"/>
<path style="fill:#b15a00; stroke:none;" d="M108.333 756.667L108.667 757.333L108.333 756.667z"/>
<path style="fill:#f5be86; stroke:none;" d="M581 767L579 765L578 765C564.838 787.777 550.217 810.095 532.576 829.718C521.939 841.549 507.395 851.384 498 864L501 863C505.351 886.438 502 913.168 502 937L502 1080L588 1080L588 860L588 792L589 758C584.366 759.324 582.534 762.605 581 767z"/>
<path style="fill:#ffb400; stroke:none;" d="M546 760C540.894 771.153 529.785 768 519 768L447 768L206 768L147 768C137.808 768 128.897 766.076 122 773L124 767L119 768L120 774L119 774L118 771L117 771C120.743 788.295 132.796 804.622 143.921 818C148.007 822.915 152.749 829.991 159 832C157.297 822.995 151.422 811.15 153.537 802C154.375 798.376 157.484 792.476 162.001 793.176C169.8 794.384 174.916 806.624 181 811L180 804L181 804L185 810C191.455 805.419 201.1 808 209 808L267 808L443 808L496 808C503.031 808 512.422 805.941 519 808L519 809L519 810L517 813L542.789 785L550.817 773L548 760L546 760z"/>
<path style="fill:#ddadad; stroke:none;" d="M98.3333 761.667L98.6667 762.333L98.3333 761.667z"/>
<path style="fill:#bd6911; stroke:none;" d="M111 763L111 766L112 766L111 763z"/>
<path style="fill:#a44b00; stroke:none;" d="M618 763L618 771L619 771L618 763z"/>
<path style="fill:#9a4500; stroke:none;" d="M957 766L956 770L957 770L957 766z"/>
<path style="fill:#e9a167; stroke:none;" d="M616 768L616 793L617 793L616 768z"/>
<path style="fill:#956460; stroke:none;" d="M967 771L968 772L967 771z"/>
<path style="fill:#e4c6be; stroke:none;" d="M966 772L966 776L967 776L966 772z"/>
<path style="fill:#bf710d; stroke:none;" d="M617 773L618 810L619 810L617 773z"/>
<path style="fill:#9f4900; stroke:none;" d="M953.333 773.667L953.667 774.333L953.333 773.667z"/>
<path style="fill:#8e6865; stroke:none;" d="M101 774L102 775L101 774z"/>
<path style="fill:#d9a8ab; stroke:none;" d="M102.333 775.667L102.667 776.333L102.333 775.667z"/>
<path style="fill:#986564; stroke:none;" d="M965 778L966 779L965 778z"/>
<path style="fill:#9a6464; stroke:none;" d="M104 783L105 784L104 783z"/>
<path style="fill:#9c6562; stroke:none;" d="M105 784L106 785L105 784z"/>
<path style="fill:#d6a3a2; stroke:none;" d="M963.333 784.667L963.667 785.333L963.333 784.667z"/>
<path style="fill:#926d67; stroke:none;" d="M105 786L106 787L105 786z"/>
<path style="fill:#9a6a66; stroke:none;" d="M962 788L963 789L962 788z"/>
<path style="fill:#ac5d00; stroke:none;" d="M681 789L683 797L684 797L681 789z"/>
<path style="fill:#540000; stroke:none;" d="M667 853L668 853L680 824C683.156 831.48 683.417 840.088 685.971 847.83C693.242 869.88 706.83 891.093 725.036 905.765C767.147 939.701 826.653 938.203 873.999 916.544C889.574 909.419 912.424 897.464 918 880C911.652 877.736 905.483 882.503 899 882.946C891.8 883.438 884.078 881.907 877 883.529C858.562 887.755 842.135 897.578 823 900.561C754.271 911.273 688.874 859.045 682 790C662.845 799.728 663.735 835.414 667 853z"/>
<path style="fill:#af5a00; stroke:none;" d="M159 792L159 793L163 793L159 792z"/>
<path style="fill:#906868; stroke:none;" d="M108 794L109 795L108 794z"/>
<path style="fill:#540000; stroke:none;" d="M616 794C616 804.515 612.892 815.646 614.129 825.911C618.71 863.922 642.948 906.221 685 912C684.264 905.41 678.858 900.618 675.616 895C672.385 889.404 671.508 879.242 667.397 874.753C657.554 864.005 643.772 858.473 634.583 846C628.267 837.426 622.942 827.359 620.249 817C618.38 809.81 618.763 800.585 616 794z"/>
<path style="fill:#9c7673; stroke:none;" d="M960 795L961 796L960 795z"/>
<path style="fill:#d88b09; stroke:none;" d="M153 801L153 809L154 809L153 801z"/>
<path style="fill:#bd7857; stroke:none;" d="M615 801L615 814L616 814L615 801z"/>
<path style="fill:#946464; stroke:none;" d="M957 801L958 802L957 801z"/>
<path style="fill:#976564; stroke:none;" d="M956 802L957 803L956 802z"/>
<path style="fill:#946b65; stroke:none;" d="M112 803L113 804L112 803z"/>
<path style="fill:#ffc300; stroke:none;" d="M180 804C181.384 814.888 188.446 821.467 196 828.999C211.27 844.225 228.105 853.457 246.729 863.616C332.384 910.336 456.547 882.232 519 810L519 809L519 808C513.856 805.441 504.93 808 499 808L447 808L262 808L206 808C198.716 808 190.42 804.758 185 810L180 804z"/>
<path style="fill:#fdeddd; stroke:none;" d="M954 807C940.833 828.146 922.826 842.557 901 854L901 855L914 853C909.536 868.903 887.362 870.376 881 883C889.921 883 898.21 882.72 906.996 881.076C909.247 880.655 914.404 877.912 916.328 879.868C920.735 884.349 903.97 897.165 901.166 899.572C882.382 915.692 857.201 923.85 834 931L834 932C839.133 938.08 829.789 938.332 827 942L842 941L836 944L836 1080L948 1080L948 894L948 848L946 832L947 822L957 810L954 807z"/>
<path style="fill:#8e6465; stroke:none;" d="M115 808L116 809L115 808z"/>
<path style="fill:#9f4f00; stroke:none;" d="M686 808L686 812L687 812L686 808z"/>
<path style="fill:#ffc300; stroke:none;" d="M689 808C689 823.77 695.869 837.05 704.506 850C737.253 899.097 801.446 911.312 855 892.218C870.768 886.595 885.991 879.611 899 868.859C904.051 864.684 910.168 860.529 912 854C885.272 858.526 845.031 856.36 826 833C851.254 836.192 876.796 833.266 900 822.626C906.722 819.543 918.506 815.572 921 808L689 808z"/>
<path style="fill:#8d665f; stroke:none;" d="M953 808L954 809L953 808z"/>
<path style="fill:#b96910; stroke:none;" d="M668 809L668 812L669 812L668 809z"/>
<path style="fill:#946764; stroke:none;" d="M117 811L118 812L117 811z"/>
<path style="fill:#802e00; stroke:none;" d="M667 812L666 820L667 820L667 812z"/>
<path style="fill:#b86800; stroke:none;" d="M155 813L155 818L156 818L155 813z"/>
<path style="fill:#8d6a64; stroke:none;" d="M119 816L120 817L119 816z"/>
<path style="fill:#b16203; stroke:none;" d="M688.333 816.667L688.667 817.333L688.333 816.667z"/>
<path style="fill:#91615f; stroke:none;" d="M946 818L947 819L946 818z"/>
<path style="fill:#9a6e6b; stroke:none;" d="M121 819L122 820L121 819z"/>
<path style="fill:#dc8a1a; stroke:none;" d="M156 819L156 823L157 823L156 819z"/>
<path style="fill:#b96c02; stroke:none;" d="M621 819L621 822L622 822L621 819z"/>
<path style="fill:#ad5c0b; stroke:none;" d="M689.333 819.667L689.667 820.333L689.333 819.667z"/>
<path style="fill:#9a6a68; stroke:none;" d="M945 819L946 820L945 819z"/>
<path style="fill:#b86e0f; stroke:none;" d="M665 820L664 839L665 839L665 820z"/>
<path style="fill:#984800; stroke:none;" d="M902.667 821.333L903.333 821.667L902.667 821.333z"/>
<path style="fill:#966561; stroke:none;" d="M123 822L124 823L123 822z"/>
<path style="fill:#843300; stroke:none;" d="M896 824L896 825L900 824L896 824z"/>
<path style="fill:#956966; stroke:none;" d="M942 823L943 824L942 823z"/>
<path style="fill:#fdecdc; stroke:none;" d="M158 825L160 834L157 833C157.001 840.745 168.227 874.213 154.1 861.27C152.619 859.913 151.318 858.511 150 857L149 857L149 930L149 1080L244 1080L244 957L244 926L246 912L246 911L246 910L244 906L248 906L240 897C239.243 888.836 227.071 885.02 220.961 880.829C203.819 869.073 189.485 854.909 176.145 839.001C171.246 833.159 166.792 823.374 158 825z"/>
<path style="fill:#f9d2ab; stroke:none;" d="M680 824C673.42 832.687 664.964 847.134 668.728 858.576C671.449 866.846 677.867 872.672 682 880L669 876C669.312 890.565 682.407 899.08 685 912L677 910C672.325 925.816 676 947.49 676 964L676 1080L740 1080L740 928L748 929L748 926L736 926L742 922L739 916L730 917L732 912C726.186 910.399 716.11 902.443 716 896C701.705 884.708 691.434 863.943 685.971 846.911C683.696 839.82 683.758 830.273 680 824z"/>
<path style="fill:#91665f; stroke:none;" d="M125 825L126 826L125 825z"/>
<path style="fill:#966966; stroke:none;" d="M126 827L127 828L126 827z"/>
<path style="fill:#f1d282; stroke:none;" d="M158 828L156 832L156 833L160 834L158 828z"/>
<path style="fill:#ae5c06; stroke:none;" d="M624.333 828.667L624.667 829.333L624.333 828.667z"/>
<path style="fill:#a45105; stroke:none;" d="M875 831L875 832L886 829L875 831z"/>
<path style="fill:#bf7e60; stroke:none;" d="M615 829L615 837L616 837L615 829z"/>
<path style="fill:#946460; stroke:none;" d="M169 831L170 832L169 831z"/>
<path style="fill:#e6c3c1; stroke:none;" d="M156 833L156 838L157 838L156 833z"/>
<path style="fill:#d78b13; stroke:none;" d="M826 833L827 836L853 835L826 833z"/>
<path style="fill:#d58b0e; stroke:none;" d="M858 833L858 834L864 834L858 833z"/>
<path style="fill:#853200; stroke:none;" d="M853 834L853 835L862 835L853 834z"/>
<path style="fill:#926560; stroke:none;" d="M931 834L932 835L931 834z"/>
<path style="fill:#af5f0a; stroke:none;" d="M696.333 835.667L696.667 836.333L696.333 835.667z"/>
<path style="fill:#822f00; stroke:none;" d="M836 835L836 836L853 836L836 835z"/>
<path style="fill:#a95b00; stroke:none;" d="M628.333 836.667L628.667 837.333L628.333 836.667z"/>
<path style="fill:#c58772; stroke:none;" d="M683.333 836.667L683.667 837.333L683.333 836.667z"/>
<path style="fill:#956d6d; stroke:none;" d="M133 837L134 838L133 837z"/>
<path style="fill:#863800; stroke:none;" d="M830 837L833 839L830 837z"/>
<path style="fill:#8e6963; stroke:none;" d="M928 837L929 838L928 837z"/>
<path style="fill:#926164; stroke:none;" d="M134 838L135 839L134 838z"/>
<path style="fill:#996864; stroke:none;" d="M923 840L924 841L923 840z"/>
<path style="fill:#8f6863; stroke:none;" d="M136 841L137 842L136 841z"/>
<path style="fill:#c47705; stroke:none;" d="M665 841L665 847L666 847L665 841z"/>
<path style="fill:#916a63; stroke:none;" d="M137 842L138 843L137 842z"/>
<path style="fill:#d29a9b; stroke:none;" d="M157 843L157 846L158 846L157 843z"/>
<path style="fill:#a75b00; stroke:none;" d="M841.667 844.333L842.333 844.667L841.667 844.333z"/>
<path style="fill:#a55405; stroke:none;" d="M843.667 845.333L844.333 845.667L843.667 845.333z"/>
<path style="fill:#8d6a64; stroke:none;" d="M140 846L141 847L140 846z"/>
<path style="fill:#91655c; stroke:none;" d="M158 846L159 847L158 846z"/>
<path style="fill:#8b6562; stroke:none;" d="M142 848L143 849L142 848z"/>
<path style="fill:#916c66; stroke:none;" d="M912 848L913 849L912 848z"/>
<path style="fill:#9b6662; stroke:none;" d="M159 851L160 852L159 851z"/>
<path style="fill:#bc7207; stroke:none;" d="M225.667 852.333L226.333 852.667L225.667 852.333z"/>
<path style="fill:#7f2f00; stroke:none;" d="M461 855L461 856L467 854L461 855z"/>
<path style="fill:#b27600; stroke:none;" d="M667 853L667 856L668 856L667 853z"/>
<path style="fill:#843400; stroke:none;" d="M866 853L866 854L870 854L866 853z"/>
<path style="fill:#e4cf72; stroke:none;" d="M910 853L910 854L914 856L910 853z"/>
<path style="fill:#9e5000; stroke:none;" d="M870 854L870 855L874 855L870 854z"/>
<path style="fill:#ffdb70; stroke:none;" d="M896 856L896 857L909 855L896 856z"/>
<path style="fill:#966662; stroke:none;" d="M160 855L161 856L160 855z"/>
<path style="fill:#b46d00; stroke:none;" d="M230.667 855.333L231.333 855.667L230.667 855.333z"/>
<path style="fill:#bd7500; stroke:none;" d="M880 856L880 857L896 857L880 856z"/>
<path style="fill:#ffe694; stroke:none;" d="M902 867L914 856L902 867z"/>
<path style="fill:#99625f; stroke:none;" d="M150 857L151 858L150 857z"/>
<path style="fill:#8c6761; stroke:none;" d="M151 859L152 860L151 859z"/>
<path style="fill:#926963; stroke:none;" d="M162 859L163 860L162 859z"/>
<path style="fill:#be7415; stroke:none;" d="M238 859L238 860L242 861L242 860L238 859z"/>
<path style="fill:#843500; stroke:none;" d="M452 860L452 861L456 860L452 860z"/>
<path style="fill:#8b3a00; stroke:none;" d="M448 862L448 863L452 862L448 862z"/>
<path style="fill:#b56a04; stroke:none;" d="M243.667 862.333L244.333 862.667L243.667 862.333z"/>
<path style="fill:#bc7501; stroke:none;" d="M245 863L245 864L248 864L245 863z"/>
<path style="fill:#f8cba1; stroke:none;" d="M362 916L362 917L364 917L364 918C359.305 918.013 354.668 917.639 352 922L358 922L358 924L354 924L354 926L360 926L359 929L355 928C350.736 942.425 354 961.951 354 977L354 1080L502 1080L502 934C502 911.728 506.157 884.662 501 863C486.269 867.672 472.475 881.311 458.83 888.923C430.342 904.816 394.65 916 362 916z"/>
<path style="fill:#986b66; stroke:none;" d="M162 865L163 866L162 865z"/>
<path style="fill:#916866; stroke:none;" d="M159 866L160 867L159 866z"/>
<path style="fill:#966966; stroke:none;" d="M161 866L162 867L161 866z"/>
<path style="fill:#a55800; stroke:none;" d="M251.667 866.333L252.333 866.667L251.667 866.333z"/>
<path style="fill:#b86d07; stroke:none;" d="M438.667 866.333L439.333 866.667L438.667 866.333z"/>
<path style="fill:#fde38e; stroke:none;" d="M896 872L902 867L896 872z"/>
<path style="fill:#9b4f03; stroke:none;" d="M260 870L260 871L263 871L260 870z"/>
<path style="fill:#a45a00; stroke:none;" d="M426.667 871.333L427.333 871.667L426.667 871.333z"/>
<path style="fill:#946259; stroke:none;" d="M209 873L210 874L209 873z"/>
<path style="fill:#944800; stroke:none;" d="M268 873L268 874L271 874L268 873z"/>
<path style="fill:#a25b00; stroke:none;" d="M420 873L420 874L423 874L420 873z"/>
<path style="fill:#b76f00; stroke:none;" d="M665.667 873.333L666.333 873.667L665.667 873.333z"/>
<path style="fill:#a8590e; stroke:none;" d="M271 874L271 875L274 875L271 874z"/>
<path style="fill:#bf7900; stroke:none;" d="M413 875L413 876L420 875L413 875z"/>
<path style="fill:#ffe073; stroke:none;" d="M886 877L886 878L893 875L886 877z"/>
<path style="fill:#faca66; stroke:none;" d="M671 876L671 877L682 880L681 876L679 878L671 876z"/>
<path style="fill:#bd7700; stroke:none;" d="M280 877L280 878L286 879L280 877z"/>
<path style="fill:#9e6d69; stroke:none;" d="M913 878L914 879L913 878z"/>
<path style="fill:#906763; stroke:none;" d="M915 878L916 879L915 878z"/>
<path style="fill:#bc7600; stroke:none;" d="M398 879L398 880L401 880L398 879z"/>
<path style="fill:#9b6f6e; stroke:none;" d="M917 879L918 880L917 879z"/>
<path style="fill:#98635d; stroke:none;" d="M220 880L221 881L220 880z"/>
<path style="fill:#a05200; stroke:none;" d="M392 880L392 881L396 881L392 880z"/>
<path style="fill:#bc7400; stroke:none;" d="M296 881L296 882L303 882L296 881z"/>
<path style="fill:#d8930a; stroke:none;" d="M382 882L382 883L392 882L382 882z"/>
<path style="fill:#976862; stroke:none;" d="M904 881L905 882L904 881z"/>
<path style="fill:#cf8b4a; stroke:none;" d="M876 884L881 883L876 884z"/>
<path style="fill:#cb9894; stroke:none;" d="M899 882L899 883L902 883L899 882z"/>
<path style="fill:#945d5a; stroke:none;" d="M902.667 882.333L903.333 882.667L902.667 882.333z"/>
<path style="fill:#996663; stroke:none;" d="M917 882L918 883L917 882z"/>
<path style="fill:#b16800; stroke:none;" d="M374 883L374 884L378 884L374 883z"/>
<path style="fill:#914500; stroke:none;" d="M310 884L310 885L318 885L310 884z"/>
<path style="fill:#c1790b; stroke:none;" d="M362 884L362 885L368 885L362 884z"/>
<path style="fill:#792900; stroke:none;" d="M368 884L368 885L378 885L368 884z"/>
<path style="fill:#936c65; stroke:none;" d="M916 884L917 885L916 884z"/>
<path style="fill:#974b00; stroke:none;" d="M320 885L320 886L328 886L320 885z"/>
<path style="fill:#cd8806; stroke:none;" d="M328 885L328 886L362 886L328 885z"/>
<path style="fill:#b06900; stroke:none;" d="M745.667 887.333L746.333 887.667L745.667 887.333z"/>
<path style="fill:#ba730b; stroke:none;" d="M747.667 888.333L748.333 888.667L747.667 888.333z"/>
<path style="fill:#926965; stroke:none;" d="M913 888L914 889L913 888z"/>
<path style="fill:#bc7501; stroke:none;" d="M749.667 889.333L750.333 889.667L749.667 889.333z"/>
<path style="fill:#9e5500; stroke:none;" d="M753.667 891.333L754.333 891.667L753.667 891.333z"/>
<path style="fill:#95625e; stroke:none;" d="M910 891L911 892L910 891z"/>
<path style="fill:#fadcc0; stroke:none;" d="M239 892L240 897L248 906L244 906L246 910L246 911L246 912L244 924L244 954L244 1080L354 1080L354 979L355 928C357.819 928.825 358.886 928.791 360 926L354 926L354 924L358 924L358 922L352 922C355.407 918.313 359.153 918.041 364 918L364 917C342.756 917 322.152 918.018 301.09 913.755C279.068 909.299 259.892 899.379 239 892z"/>
<path style="fill:#9e5204; stroke:none;" d="M854.667 892.333L855.333 892.667L854.667 892.333z"/>
<path style="fill:#91645f; stroke:none;" d="M909 892L910 893L909 892z"/>
<path style="fill:#9f5305; stroke:none;" d="M767.667 896.333L768.333 896.667L767.667 896.333z"/>
<path style="fill:#ac610e; stroke:none;" d="M838 896L838 897L842 897L838 896z"/>
<path style="fill:#fbdcbf; stroke:none;" d="M716 897C716.258 903.277 726.033 911.081 732 912L730 917L739 916L742 922L736 926L748 926L748 929L740 928L740 1080L836 1080L836 944C839.194 943.987 841.271 944.403 842 941L827 942C829.962 939.421 840.343 937.019 834 932L834 931L839 930L839 929C821.567 929.749 804.736 933.726 787 931.826C758.418 928.765 737.726 914.046 716 897z"/>
<path style="fill:#c77f06; stroke:none;" d="M834 897L834 898L837 898L834 897z"/>
<path style="fill:#c78112; stroke:none;" d="M776 898L776 899L781 899L776 898z"/>
<path style="fill:#873700; stroke:none;" d="M830 898L830 899L834 899L830 898z"/>
<path style="fill:#cd8c00; stroke:none;" d="M819 899L819 900L824 900L819 899z"/>
<path style="fill:#914600; stroke:none;" d="M824 899L824 900L829 900L824 899z"/>
<path style="fill:#954a07; stroke:none;" d="M784 900L784 901L788 901L784 900z"/>
<path style="fill:#f6b43a; stroke:none;" d="M788 900L788 901L813 901L788 900z"/>
<path style="fill:#c47e1e; stroke:none;" d="M813 900L813 901L819 901L813 900z"/>
<path style="fill:#823600; stroke:none;" d="M819 900L819 901L824 901L819 900z"/>
<path style="fill:#976155; stroke:none;" d="M306 914L307 915L306 914z"/>
<path style="fill:#c28779; stroke:none;" d="M312 915L312 916L317 916L312 915z"/>
<path style="fill:#d49a86; stroke:none;" d="M370 915L370 916L378 916L370 915z"/>
<path style="fill:#b37568; stroke:none;" d="M319 916L319 917L330 917L319 916z"/>
<path style="fill:#ab6e5b; stroke:none;" d="M355 916L355 917L362 917L355 916z"/>
<path style="fill:#936b61; stroke:none;" d="M872 917L873 918L872 917z"/>
<path style="fill:#92675e; stroke:none;" d="M866 920L867 921L866 920z"/>
<path style="fill:#ca9281; stroke:none;" d="M763.667 926.333L764.333 926.667L763.667 926.333z"/>
<path style="fill:#d89f96; stroke:none;" d="M841 927L841 928L844 928L841 927z"/>
<path style="fill:#9c6159; stroke:none;" d="M833 929L834 930L833 929z"/>
<path style="fill:#ca9285; stroke:none;" d="M780 930L780 931L783 931L780 930z"/>
<path style="fill:#cc8c80; stroke:none;" d="M784 931L784 932L789 932L784 931z"/>
<path style="fill:#dea89c; stroke:none;" d="M819 931L819 932L824 932L819 931z"/>
</svg>
